<?xml version="1.0" encoding="UTF-8"?>
<svg width="81px" height="91px" viewBox="0 0 81 91" version="1.1" xmlns="http://www.w3.org/2000/svg" xmlns:xlink="http://www.w3.org/1999/xlink">
    <!-- Generator: Sketch 55.2 (78181) - https://sketchapp.com -->
    <title>6 copy</title>
    <desc>Created with Sketch.</desc>
    <g id="Page-1" stroke="none" stroke-width="1" fill="none" fill-rule="evenodd">
        <path d="M66.1168669,58.3086616 C66.1500672,58.3225075 66.1666671,58.3529535 66.1666671,58.4 C66.1666671,58.466667 66.1333341,58.5 66.0666671,58.5 C65.8666671,58.5 65.7666671,58.366668 65.7666671,58.1 C65.2999981,57.633331 64.8833356,57.1500025 64.5166671,56.65 C64.1499986,56.1499975 63.7333361,55.633336 63.2666671,55.1 C62.7333311,55.233334 62.1000041,55.233334 61.3666671,55.1 C60.6333301,54.966666 59.9333371,54.966666 59.2666671,55.1 C59.2000001,55.1 59.1000011,55.1499995 58.9666671,55.25 C58.8333331,55.3500005 58.7000011,55.300001 58.5666671,55.1 C57.6333291,55.233334 56.8000041,55.3833325 56.0666671,55.55 C55.3333301,55.7166675 54.5000051,55.733334 53.5666671,55.6 L52.2666671,55.6 C51.9333321,55.6 51.5000031,55.566667 50.9666671,55.5 C50.5666651,55.766668 50.1666691,55.7500015 49.7666671,55.45 C49.3666671,55.1499985 49.1000011,54.900001 48.9666671,54.7 C48.6999991,55.033335 48.4000021,55.2833325 48.0666671,55.45 C47.7333321,55.6166675 47.5000011,55.866665 47.3666671,56.2 C47.2333331,56.466668 47.1500006,56.7833315 47.1166671,57.15 C47.0833336,57.5166685 47.0000011,57.833332 46.8666671,58.1 C46.5999991,58.366668 46.4666671,58.566666 46.4666671,58.7 C46.3333331,58.7 46.2666671,58.799999 46.2666671,59 L46.1666671,59.1 C46.1000001,59.166667 46.0666671,59.266666 46.0666671,59.4 C45.9333331,59.733335 45.8833336,60.1499975 45.9166671,60.65 C45.9500006,61.1500025 45.9000011,61.666664 45.7666671,62.2 C45.6333331,62.400001 45.5333341,62.566666 45.4666671,62.7 C45.4000001,62.833334 45.3666671,63.033332 45.3666671,63.3 C45.3666671,63.433334 45.4000001,63.599999 45.4666671,63.8 C45.5333341,64 45.5666671,64.199999 45.5666671,64.4 C45.7000011,64.733335 45.6833346,65.033332 45.5166671,65.3 C45.3499996,65.566668 45.2000011,65.866665 45.0666671,66.2 C44.9333331,66.666669 44.8666671,67.133331 44.8666671,67.6 C44.8666671,68.066669 44.8000011,68.533331 44.6666671,69 C44.4666661,68.599998 44.4666661,67.900005 44.6666671,66.9 C44.6666671,66.766666 44.6333341,66.6166675 44.5666671,66.45 C44.5000001,66.2833325 44.5333331,66.133334 44.6666671,66 C44.6666671,65.866666 44.7333331,65.7500005 44.8666671,65.65 C45.0000011,65.5499995 45.1000001,65.433334 45.1666671,65.3 C45.3000011,64.966665 45.3333341,64.6833345 45.2666671,64.45 C45.2000001,64.2166655 45.1333341,64 45.0666671,63.8 C45.0666671,63.666666 45.0333341,63.533334 44.9666671,63.4 C44.9000001,63.266666 44.8666671,63.066668 44.8666671,62.8 C44.8666671,62.533332 44.8000011,62.333334 44.6666671,62.2 C44.6666671,62.066666 44.7000001,61.9166675 44.7666671,61.75 C44.8333341,61.5833325 44.8000011,61.433334 44.6666671,61.3 C44.8666671,60.766664 45.0333331,60.200003 45.1666671,59.6 L45.1666671,59.5 C45.1666671,59.433333 45.1333341,59.4 45.0666671,59.4 C44.8666671,59.4 44.7500006,59.466666 44.7166671,59.6 C44.6833336,59.733334 44.6000011,59.899999 44.4666671,60.1 C44.4666671,60.233334 44.5000001,60.266667 44.5666671,60.2 C44.6333341,60.133333 44.7333331,60.166666 44.8666671,60.3 C44.6666661,60.566668 44.4333351,60.799999 44.1666671,61 C43.6999981,62.266673 43.1666701,63.433328 42.5666671,64.5 C41.9666641,65.566672 41.4666691,66.76666 41.0666671,68.1 C40.7333321,68.300001 40.6333331,68.533332 40.7666671,68.8 C40.9000011,69.066668 40.9666671,69.366665 40.9666671,69.7 L40.5666671,69.7 C40.7666681,70.100002 40.8833336,70.5499975 40.9166671,71.05 L41.0166671,72.55 C41.0500006,73.0500025 41.1499996,73.5166645 41.3166671,73.95 C41.4833346,74.3833355 41.7666651,74.699999 42.1666671,74.9 L42.1666671,75.1 C42.1666671,75.233334 42.1333341,75.266667 42.0666671,75.2 C42.0000001,75.133333 41.9333341,75.1 41.8666671,75.1 L41.8666671,75.2 C41.9333341,75.2 41.9666671,75.233333 41.9666671,75.3 L41.9666671,75.4 C41.6999991,75.600001 41.5000011,75.8166655 41.3666671,76.05 C41.2333331,76.2833345 41.2666661,76.566665 41.4666671,76.9 C41.3333331,76.766666 41.2666671,76.666667 41.2666671,76.6 C41.2666671,76.533333 41.2000011,76.5 41.0666671,76.5 C41.0666671,76.766668 41.1666661,76.966666 41.3666671,77.1 C41.5666681,77.233334 41.6666671,77.466665 41.6666671,77.8 C42.2000031,77.866667 42.4333341,78.1499975 42.3666671,78.65 C42.3000001,79.1500025 42.3999991,79.566665 42.6666671,79.9 C42.6000001,80.233335 42.6499996,80.4833325 42.8166671,80.65 C42.9833346,80.8166675 43.1333331,81.033332 43.2666671,81.3 L43.2666671,81.5 C43.6000021,82.033336 43.6166686,82.599997 43.3166671,83.2 C43.0166656,83.800003 42.8000011,84.366664 42.6666671,84.9 C42.3999991,85.100001 42.2333341,85.333332 42.1666671,85.6 C42.1000001,85.866668 42.0000011,86.233331 41.8666671,86.7 C41.7333331,86.833334 41.6000011,87.0833315 41.4666671,87.45 C41.3333331,87.8166685 41.2666671,88.166665 41.2666671,88.5 C41.4000011,88.766668 41.5499996,89.033332 41.7166671,89.3 C41.8833346,89.566668 41.9333341,89.866665 41.8666671,90.2 C41.6666661,90.133333 41.5833336,90.066667 41.6166671,90 C41.6500006,89.933333 41.6666671,89.833334 41.6666671,89.7 C41.5333331,89.433332 41.4000011,89.200001 41.2666671,89 C41.1333331,88.799999 41.0666671,88.566668 41.0666671,88.3 C41.0666671,87.966665 41.1333331,87.633335 41.2666671,87.3 L41.6666671,86.3 C41.5333331,86.433334 41.4166676,86.5833325 41.3166671,86.75 C41.2166666,86.9166675 41.1000011,86.966667 40.9666671,86.9 C41.0333341,86.699999 41.1666661,86.4500015 41.3666671,86.15 C41.5666681,85.8499985 41.7333331,85.566668 41.8666671,85.3 L42.0666671,84.7 C42.1333341,84.5 42.1666671,84.333334 42.1666671,84.2 C42.1666671,84.066666 42.1333341,83.966667 42.0666671,83.9 C42.0000001,83.833333 41.9666671,83.733334 41.9666671,83.6 C41.8333331,83.266665 41.8999991,82.866669 42.1666671,82.4 C42.1666671,82.199999 42.2333331,81.966668 42.3666671,81.7 C42.5000011,81.433332 42.5666671,81.133335 42.5666671,80.8 C42.5666671,80.599999 42.5000011,80.3833345 42.3666671,80.15 C42.2333331,79.9166655 42.1000011,79.700001 41.9666671,79.5 C41.9000001,79.233332 41.8333341,79.0166675 41.7666671,78.85 C41.7000001,78.6833325 41.6000011,78.5 41.4666671,78.3 C41.3333331,78.033332 41.1833346,77.833334 41.0166671,77.7 C40.8499996,77.566666 40.7666671,77.333335 40.7666671,77 C40.7666671,76.733332 40.8000001,76.5166675 40.8666671,76.35 C40.9333341,76.1833325 40.9666671,75.933335 40.9666671,75.6 C40.9666671,75.266665 40.9000011,74.9166685 40.7666671,74.55 C40.6333331,74.1833315 40.5000011,73.766669 40.3666671,73.3 C40.3666671,73.166666 40.4333331,73.033334 40.5666671,72.9 C40.4333331,72.633332 40.3166676,72.3833345 40.2166671,72.15 C40.1166666,71.9166655 40.0000011,71.633335 39.8666671,71.3 C39.5333321,71.633335 39.2500016,72 39.0166671,72.4 C38.7833326,72.800002 38.5333351,73.166665 38.2666671,73.5 C38.2666671,73.966669 38.1333351,74.266666 37.8666671,74.4 C37.8666671,74.533334 37.9000001,74.6166665 37.9666671,74.65 C38.0333341,74.6833335 38.0666671,74.766666 38.0666671,74.9 C37.9333331,74.9 37.8333341,74.833334 37.7666671,74.7 C37.7000001,74.566666 37.5666681,74.566666 37.3666671,74.7 C37.5000011,74.566666 37.6333331,74.466667 37.7666671,74.4 C37.7666671,73.666663 37.8333331,72.9833365 37.9666671,72.35 C38.1000011,71.7166635 38.2666661,71.133336 38.4666671,70.6 C38.5333341,70.733334 38.5500006,70.866666 38.5166671,71 C38.4833336,71.133334 38.4666671,71.233333 38.4666671,71.3 C38.5333341,70.833331 38.6666661,70.400002 38.8666671,70 C39.0666681,69.599998 39.1666671,69.200002 39.1666671,68.8 C38.9666661,68.199997 38.7500016,67.600003 38.5166671,67 C38.2833326,66.399997 38.0666681,65.833336 37.8666671,65.3 C37.7333331,64.966665 37.6500006,64.6500015 37.6166671,64.35 C37.5833336,64.0499985 37.5000011,63.833334 37.3666671,63.7 C37.2333331,63.5 37.1000011,63.3166675 36.9666671,63.15 C36.8333331,62.9833325 36.8333331,62.800001 36.9666671,62.6 C37.3000021,62.6 37.4500006,62.699999 37.4166671,62.9 C37.3833336,63.100001 37.4333331,63.299999 37.5666671,63.5 C37.3666671,62.233327 36.8666671,61.166671 36.0666671,60.3 C35.5999981,60.3 35.3666671,60.166668 35.3666671,59.9 C35.3000001,59.766666 35.2833336,59.6166675 35.3166671,59.45 C35.3500006,59.2833325 35.3666671,59.133334 35.3666671,59 C35.5000011,58.733332 35.4500016,58.5166675 35.2166671,58.35 C34.9833326,58.1833325 34.9333331,57.933335 35.0666671,57.6 C34.7333321,57.399999 34.4666681,57.4166655 34.2666671,57.65 C34.0666661,57.8833345 33.8000021,57.933334 33.4666671,57.8 L33.4666671,57.7 C33.4666671,57.633333 33.4000011,57.533334 33.2666671,57.4 C33.1333331,57.266666 33.0000011,57.2 32.8666671,57.2 C32.8000001,57.2 32.7000011,57.166667 32.5666671,57.1 C32.4333331,56.966666 32.3000011,56.866667 32.1666671,56.8 C32.0333331,56.733333 31.9333341,56.633334 31.8666671,56.5 C31.7333331,56.366666 31.5833346,56.266667 31.4166671,56.2 C31.2499996,56.133333 31.1666671,56 31.1666671,55.8 C30.2999961,55.666666 29.4666711,55.6499995 28.6666671,55.75 C27.8666671,55.8500005 27.0666711,55.800001 26.2666671,55.6 C25.9999991,55.6 25.7666681,55.566667 25.5666671,55.5 C25.3666671,55.433333 25.2000011,55.466666 25.0666671,55.6 L24.8666671,55.6 C24.8666671,55.533333 24.8000011,55.5 24.6666671,55.5 C24.5333331,55.566667 24.3833346,55.733332 24.2166671,56 C24.0499996,56.266668 23.8000021,56.4 23.4666671,56.4 C23.1333321,56.533334 22.8833346,56.766665 22.7166671,57.1 C22.5499996,57.433335 22.3333351,57.666666 22.0666671,57.8 C21.9333331,57.8 21.9000001,57.766667 21.9666671,57.7 C22.0333341,57.633333 22.0666671,57.533334 22.0666671,57.4 C21.8666671,57.600001 21.6666681,57.7833325 21.4666671,57.95 C21.2666661,58.1166675 21.1000011,58.366665 20.9666671,58.7 C20.2999971,58.7 19.7833356,58.9166645 19.4166671,59.35 C19.0499986,59.7833355 18.5666701,60.099999 17.9666671,60.3 C17.0333291,60.3 16.2000041,60.599997 15.4666671,61.2 C14.9999981,61.466668 14.6000021,61.766665 14.2666671,62.1 C13.9333321,62.433335 13.5000031,62.666666 12.9666671,62.8 C13.1000011,62.599999 13.2833326,62.433334 13.5166671,62.3 C13.7500016,62.166666 13.9666661,61.966668 14.1666671,61.7 C14.6333361,61.366665 15.1333311,61.033335 15.6666671,60.7 C16.2000031,60.366665 16.8333301,60.100001 17.5666671,59.9 L17.9666671,59.9 C19.0333391,59.433331 19.9166636,58.7833375 20.6166671,57.95 C21.3166706,57.1166625 22.1333291,56.300004 23.0666671,55.5 L23.1666671,55.3 L23.0666671,55.3 C23.0666671,55.166666 23.1000001,55.1 23.1666671,55.1 L23.2666671,55.1 C22.7999981,54.966666 22.3500026,54.866667 21.9166671,54.8 C21.4833316,54.733333 21.0333361,54.666667 20.5666671,54.6 C20.4333331,54.6 20.3166676,54.6166665 20.2166671,54.65 C20.1166666,54.6833335 20.0000011,54.7 19.8666671,54.7 C19.8666671,54.633333 19.9333331,54.6 20.0666671,54.6 L20.2666671,54.6 C20.0666661,54.399999 19.8166686,54.3166665 19.5166671,54.35 C19.2166656,54.3833335 18.9333351,54.333334 18.6666671,54.2 C18.4666661,54 18.2333351,53.9 17.9666671,53.9 C17.4333311,53.699999 16.9666691,53.6499995 16.5666671,53.75 C16.1666651,53.8500005 15.8000021,53.933333 15.4666671,54 C15.2666661,54 15.1833336,53.9833335 15.2166671,53.95 C15.2500006,53.9166665 15.2000011,53.9 15.0666671,53.9 C14.8666671,53.966667 14.6500016,54.0166665 14.4166671,54.05 C14.1833326,54.0833335 13.9666681,54.199999 13.7666671,54.4 C13.7000001,54.4 13.6666671,54.366667 13.6666671,54.3 L13.6666671,54.2 C13.1999981,54.400001 12.9666671,54.533333 12.9666671,54.6 C12.5666651,54.6 12.2166686,54.666666 11.9166671,54.8 C11.6166656,54.933334 11.4333341,54.866668 11.3666671,54.6 C12.1000041,54.6 12.7999971,54.4166685 13.4666671,54.05 C14.1333371,53.6833315 14.8333301,53.433334 15.5666671,53.3 C15.8333351,53.166666 16.1333321,53.1 16.4666671,53.1 L16.8666671,52.9 C17.0000011,52.833333 17.1000001,52.8 17.1666671,52.8 C17.3666671,52.8 17.5666661,52.833333 17.7666671,52.9 C17.9666681,52.966667 18.1999991,53.033333 18.4666671,53.1 C18.7333351,53.233334 18.9999991,53.3 19.2666671,53.3 L20.2666671,53.3 C20.5333351,53.3 20.7666661,53.333333 20.9666671,53.4 C21.1666681,53.466667 21.3333331,53.5 21.4666671,53.5 C21.8000021,53.5 22.1333321,53.4833335 22.4666671,53.45 C22.8000021,53.4166665 23.0666661,53.5 23.2666671,53.7 C23.7333361,53.7 24.0999991,53.766666 24.3666671,53.9 C24.5000011,53.9 24.5666671,53.866667 24.5666671,53.8 C24.5666671,53.733333 24.6000001,53.7 24.6666671,53.7 L24.7666671,53.7 C24.8333325,53.7 24.8666671,53.7666628 24.8666671,53.8999904 C25.0016495,53.6986314 25.1005503,53.6169416 25.1666671,53.65 C25.2333341,53.6833335 25.3000001,53.633334 25.3666671,53.5 C25.5666681,53.366666 25.7333331,53.2166675 25.8666671,53.05 C26.0000011,52.8833325 26.1999991,52.733334 26.4666671,52.6 C26.4666671,52.466666 26.4333341,52.433333 26.3666671,52.5 C26.3000001,52.566667 26.2666671,52.533334 26.2666671,52.4 C26.7333361,51.933331 27.1666651,51.4833355 27.5666671,51.05 C27.8901665,50.6995423 28.2572661,50.3817919 28.6679732,50.0967427 C28.801089,49.7655793 28.9673186,49.6 29.1666671,49.6 C29.3000011,49.6 29.3666671,49.466668 29.3666671,49.2 C30.1666711,48.866665 30.9333301,48.333337 31.6666671,47.6 L31.6666671,47.3 C31.8000011,47.3 31.8666671,47.333333 31.8666671,47.4 L31.9666671,47.4 C31.9000001,46.933331 31.6666691,46.466669 31.2666671,46 C31.2666671,46.200001 31.3666671,46.399999 31.5666671,46.6 C31.7666681,46.800001 31.8000011,46.9 31.6666671,46.9 C31.4666661,46.766666 31.3333341,46.6166675 31.2666671,46.45 C31.2000001,46.2833325 31.1000011,46.133334 30.9666671,46 C31.1000011,45.866666 31.1333341,45.8 31.0666671,45.8 C31.0000001,45.8 30.9666671,45.733334 30.9666671,45.6 C30.9666671,45.533333 30.9000011,45.4500005 30.7666671,45.35 C30.6333331,45.2499995 30.5666671,45.100001 30.5666671,44.9 C30.2333321,44.833333 30.0333341,44.6833345 29.9666671,44.45 C29.9000001,44.2166655 29.8666671,43.966668 29.8666671,43.7 C29.3999981,43.566666 29.0500016,43.4166675 28.8166671,43.25 C28.5833326,43.0833325 28.2333361,42.933334 27.7666671,42.8 C27.2999981,42.466665 27.0166676,42 26.9166671,41.4 C26.8166666,40.799997 26.6000021,40.266669 26.2666671,39.8 C26.2000001,38.866662 26.0166686,38.0166705 25.7166671,37.25 C25.4166656,36.4833295 25.2666671,35.600005 25.2666671,34.6 C25.0666661,34.399999 24.9666671,34.233334 24.9666671,34.1 C24.9666671,33.899999 24.8666671,33.700001 24.6666671,33.5 C24.8000011,33.166665 24.8166676,32.8833345 24.7166671,32.65 C24.6425001,32.4769437 24.5591662,32.2947216 24.466664,32.1033306 C24.466295,32.3011112 24.432963,32.4 24.3666671,32.4 C24.1666661,32.333333 24.0833336,32.1833345 24.1166671,31.95 C24.1500006,31.7166655 24.1666671,31.533334 24.1666671,31.4 C24.0333331,31.066665 23.8833346,30.733335 23.7166671,30.4 C23.5499996,30.066665 23.4000011,29.733335 23.2666671,29.4 C22.7333311,29.133332 22.2166696,28.900001 21.7166671,28.7 C21.2166646,28.5 20.7333361,28.266668 20.2666671,28 C20.3333341,27.799999 20.2500016,27.666667 20.0166671,27.6 C19.7833326,27.533333 19.6333341,27.433334 19.5666671,27.3 C19.6333341,27.166666 19.7333331,27.1 19.8666671,27.1 C19.7333331,26.966666 19.6500006,26.8500005 19.6166671,26.75 C19.5833336,26.6499995 19.5000011,26.533334 19.3666671,26.4 C18.8333311,25.466662 18.0000061,24.633337 16.8666671,23.9 C16.5333321,24.366669 16.0833366,24.5833335 15.5166671,24.55 C14.9499976,24.5166665 14.4333361,24.599999 13.9666671,24.8 C13.8333331,24.933334 13.7333341,25.066666 13.6666671,25.2 C13.6000001,25.333334 13.4666681,25.5 13.2666671,25.7 C13.1333331,25.366665 13.1666661,25.1500005 13.3666671,25.05 C13.5666681,24.9499995 13.7000001,24.800001 13.7666671,24.6 C14.3000031,24.466666 14.8499976,24.3833335 15.4166671,24.35 C15.9833366,24.3166665 16.3333331,24.033336 16.4666671,23.5 C16.6000011,23.366666 16.7333331,23.333333 16.8666671,23.4 C17.0000011,23.466667 17.1000001,23.5 17.1666671,23.5 C16.6999981,23.233332 16.2166696,23.133333 15.7166671,23.2 C15.2166646,23.266667 14.8333351,23.433332 14.5666671,23.7 C14.7000011,23.166664 15.0333311,22.933333 15.5666671,23 C16.1000031,23.066667 16.6333311,23 17.1666671,22.8 C18.3000061,23.533337 19.2666631,24.299996 20.0666671,25.1 C20.8666671,25.900004 21.7999951,26.63333 22.8666671,27.3 C22.8666671,27.5 22.9999991,27.666666 23.2666671,27.8 C23.1333331,27.533332 23.0166676,27.2500015 22.9166671,26.95 C22.8166666,26.6499985 22.7000011,26.333335 22.5666671,26 C22.8333351,25.466664 22.9666671,24.900003 22.9666671,24.3 C22.9666671,23.63333 22.8333351,23.033336 22.5666671,22.5 C23.0333361,22.833335 23.2166676,23.366663 23.1166671,24.1 C23.0166666,24.833337 23.1333321,25.399998 23.4666671,25.8 C23.4666671,25.933334 23.4333341,26 23.3666671,26 L23.2666671,26 C23.4666681,26.533336 23.6833326,27.033331 23.9166671,27.5 C24.1500016,27.966669 24.3999991,28.433331 24.6666671,28.9 C25.9333401,29.700004 27.1833276,30.466663 28.4166671,31.2 C29.6500066,31.933337 30.8333281,32.699996 31.9666671,33.5 C32.1666681,33.633334 32.3666671,33.7 32.5666671,33.7 L33.0666671,33.7 C33.0666671,33.433332 33.2833316,33.2166675 33.7166671,33.05 C34.1500026,32.8833325 34.3000011,32.566669 34.1666671,32.1 C34.5000021,32.1 34.6333341,32.299998 34.5666671,32.7 C34.5000001,33.100002 34.5333331,33.366666 34.6666671,33.5 C35.0666691,34.16667 35.5999971,34.599999 36.2666671,34.8 C37.0666711,35.733338 38.0166616,36.4833305 39.1166671,37.05 C40.2166726,37.6166695 41.2333291,38.266663 42.1666671,39 C42.8333371,39 43.3333321,38.833335 43.6666671,38.5 C44.0000021,38.166665 44.3999981,37.800002 44.8666671,37.4 C45.0000011,37.133332 45.1999991,36.8833345 45.4666671,36.65 C45.7333351,36.4166655 45.9999991,36.133335 46.2666671,35.8 C46.6000021,35.533332 46.8333331,35.200002 46.9666671,34.8 C47.1000011,34.666666 47.2333331,34.6 47.3666671,34.6 C47.5000011,34.6 47.6000001,34.533334 47.6666671,34.4 L47.8666671,34.2 C47.8666671,34.133333 47.9333331,34.033334 48.0666671,33.9 C48.5333361,33.566665 48.9833316,33.233335 49.4166671,32.9 C49.8500026,32.566665 50.2999981,32.233335 50.7666671,31.9 L50.8666671,32 L51.0666671,32.1 C51.4000021,31.966666 51.6333331,31.7833345 51.7666671,31.55 C51.9000011,31.3166655 52.1666651,31.2 52.5666671,31.2 C52.5666671,31.333334 52.5333341,31.433333 52.4666671,31.5 L52.3666671,31.6 C52.9000031,31.399999 53.4499976,31.166668 54.0166671,30.9 C54.5833366,30.633332 55.0999981,30.266669 55.5666671,29.8 C55.7666681,29.466665 55.9666661,29.166668 56.1666671,28.9 C56.3666671,28.633332 56.6333321,28.433334 56.9666671,28.3 C56.9666671,28.166666 57.0333331,28.0500005 57.1666671,27.95 C57.3000011,27.8499995 57.4333331,27.733334 57.5666671,27.6 C57.7000011,27.466666 57.7833336,27.266668 57.8166671,27 C57.8500006,26.733332 57.9333331,26.533334 58.0666671,26.4 L58.2666671,26.2 C58.3333341,26.2 58.4333331,26.133334 58.5666671,26 C58.9000021,25.466664 59.1833326,24.8166705 59.4166671,24.05 C59.6500016,23.2833295 60.0999971,22.766668 60.7666671,22.5 C60.6333331,22.900002 60.3833356,23.299998 60.0166671,23.7 C59.6499986,24.100002 59.4666671,24.566664 59.4666671,25.1 C59.6666681,25.1 59.8000001,25.0166675 59.8666671,24.85 C59.9333341,24.6833325 60.0333331,24.533334 60.1666671,24.4 C60.5000021,24.266666 60.7833326,24.133334 61.0166671,24 C61.2500016,23.866666 61.4666661,23.633335 61.6666671,23.3 C61.5333331,23.700002 61.2500026,24.0166655 60.8166671,24.25 C60.3833316,24.4833345 60.0000021,24.766665 59.6666671,25.1 C59.3999991,25.366668 59.2333341,25.599999 59.1666671,25.8 C58.9666661,26 58.7666681,26.1833325 58.5666671,26.35 C58.3666671,26.5166675 58.2000011,26.766665 58.0666671,27.1 C57.9333331,27.300001 57.8666671,27.533332 57.8666671,27.8 L57.8666671,28.3 C57.7333331,28.433334 57.6166676,28.5833325 57.5166671,28.75 C57.4166666,28.9166675 57.3000011,29.066666 57.1666671,29.2 C57.5000021,29.2 57.7499996,29.1166675 57.9166671,28.95 C58.0833346,28.7833325 58.2999991,28.7 58.5666671,28.7 C58.7000011,28.7 58.7666671,28.566668 58.7666671,28.3 C59.7000051,27.966665 60.5666631,27.6500015 61.3666671,27.35 C62.1666711,27.0499985 62.9666631,26.666669 63.7666671,26.2 C64.0333351,26 64.2999991,25.7833345 64.5666671,25.55 C64.8333351,25.3166655 65.2333311,25.299999 65.7666671,25.5 C65.5666661,25.633334 65.3833346,25.666667 65.2166671,25.6 C65.0499996,25.533333 64.9333341,25.566666 64.8666671,25.7 C64.5333321,25.766667 64.3000011,25.933332 64.1666671,26.2 C63.6999981,26.466668 63.2833356,26.666666 62.9166671,26.8 C62.5499986,26.933334 62.1666691,27.099999 61.7666671,27.3 C61.4999991,27.833336 61.1333361,28.1499995 60.6666671,28.25 C60.1999981,28.3500005 59.7333361,28.566665 59.2666671,28.9 C58.7333311,29.233335 58.2333361,29.533332 57.7666671,29.8 C57.2999981,30.066668 56.8000031,30.366665 56.2666671,30.7 C56.0666661,31.233336 55.8333351,31.566666 55.5666671,31.7 L55.5666671,32.3 C55.2999991,32.3 55.1333341,32.333333 55.0666671,32.4 C54.9333331,32.733335 54.9833326,33.033332 55.2166671,33.3 C55.4500016,33.566668 55.5666671,33.866665 55.5666671,34.2 C55.3666671,34.400001 55.1833346,34.533333 55.0166671,34.6 C54.8499996,34.666667 54.6666681,34.833332 54.4666671,35.1 C54.6000011,35.366668 54.6666671,35.733331 54.6666671,36.2 L54.5666671,36.2 C54.5000001,36.2 54.4666671,36.266666 54.4666671,36.4 C54.3333331,36.4 54.2666671,36.333334 54.2666671,36.2 C54.2666671,36.066666 54.2333341,35.933334 54.1666671,35.8 L53.8666671,36.55 C53.8000001,36.7166675 53.8333331,36.899999 53.9666671,37.1 C53.4333311,37.700003 53.0666681,38.4499955 52.8666671,39.35 C52.6666661,40.2500045 52.4333351,41.166662 52.1666671,42.1 C51.7666651,43.100005 51.4666681,44.233327 51.2666671,45.5 C51.4000011,45.566667 51.5666661,45.6 51.7666671,45.6 L51.9666671,45.5 C52.1666681,45.5 52.3333331,45.5499995 52.4666671,45.65 C52.6000011,45.7500005 52.7333331,45.866666 52.8666671,46 C53.0000011,46 53.0333341,45.933334 52.9666671,45.8 C52.9000001,45.666666 52.9333331,45.666666 53.0666671,45.8 C53.3333351,45.8 53.4666671,45.866666 53.4666671,46 C54.0666701,46.200001 54.5999981,46.4499985 55.0666671,46.75 C55.5333361,47.0500015 55.8333331,47.466664 55.9666671,48 C56.2333351,48.333335 56.5333321,48.599999 56.8666671,48.8 C57.2000021,49 57.5333321,49.199999 57.8666671,49.4 C58.0666681,49.533334 58.2499996,49.5500005 58.4166671,49.45 C58.5833346,49.3499995 58.7666661,49.399999 58.9666671,49.6 C59.1000011,49.6 59.1333341,49.533334 59.0666671,49.4 C59.0000001,49.266666 59.0333331,49.2 59.1666671,49.2 C59.2333341,49.400001 59.3000001,49.566666 59.3666671,49.7 C59.4333341,49.833334 59.5333331,49.966666 59.6666671,50.1 C59.8000011,49.966666 59.7666681,49.833334 59.5666671,49.7 C59.3666671,49.566666 59.3333331,49.400001 59.4666671,49.2 C59.8000021,49.2 60.0000001,49.333332 60.0666671,49.6 C60.1333341,49.866668 60.2333331,50.099999 60.3666671,50.3 C60.6333351,50.433334 60.8499996,50.533333 61.0166671,50.6 C61.1833346,50.666667 61.3333331,50.866665 61.4666671,51.2 L61.4666671,51.3 C61.4666671,51.366667 61.4000011,51.4 61.2666671,51.4 C61.4666681,51.800002 61.7166656,52.199998 62.0166671,52.6 C62.3166686,53 62.5999991,53.366665 62.8666671,53.7 C63.0000011,53.7 63.1000001,53.733333 63.1666671,53.8 C63.2333341,53.866667 63.2666671,53.833334 63.2666671,53.7 C63.2666671,53.900001 63.3499996,54.033333 63.5166671,54.1 C63.6833346,54.166667 63.8833326,54.2166665 64.1166671,54.25 C64.3500016,54.2833335 64.5666661,54.3166665 64.7666671,54.35 C64.9666681,54.3833335 65.1000001,54.466666 65.1666671,54.6 C66.4333401,54.666667 67.5666621,55 68.5666671,55.6 C68.9000021,55.733334 69.1999991,55.8499995 69.4666671,55.95 C69.7333351,56.0500005 69.9000001,56.199999 69.9666671,56.4 C69.2333301,56.199999 68.5500036,55.966668 67.9166671,55.7 C67.2833306,55.433332 66.5000051,55.233334 65.5666671,55.1 C65.5383121,55.128355 65.5159872,55.1552024 65.4996922,55.1805422 C65.495622,55.1268472 65.4512804,55.1 65.3666671,55.1 C65.2333331,54.966666 65.1333341,54.933333 65.0666671,55 C65.0000001,55.066667 64.9333341,55.1 64.8666671,55.1 C64.8666671,55.233334 64.9166666,55.3166665 65.0166671,55.35 C65.1166676,55.3833335 65.1666671,55.466666 65.1666671,55.6 C64.8999991,55.733334 64.6666681,55.6833345 64.4666671,55.45 C64.2666661,55.2166655 64.0333351,55.1 63.7666671,55.1 C64.3000031,55.833337 64.8333311,56.366665 65.3666671,56.7 C65.3666671,57.166669 65.4999991,57.433333 65.7666671,57.5 C66.0333351,57.566667 66.3333321,57.666666 66.6666671,57.8 C66.8000011,57.933334 66.9833326,58.133332 67.2166671,58.4 C67.4500016,58.666668 67.7333321,58.866666 68.0666671,59 C68.2000011,59.200001 68.3833326,59.3833325 68.6166671,59.55 C68.8500016,59.7166675 69.0333331,59.966665 69.1666671,60.3 C68.7666651,60.166666 68.4500016,59.9833345 68.2166671,59.75 C67.9833326,59.5166655 67.6333361,59.333334 67.1666671,59.2 C66.9666661,59.066666 66.8166676,58.9166675 66.7166671,58.75 C66.6209503,58.5904721 66.4183506,58.4462156 66.1088622,58.3172267 L66.1168669,58.3086616 Z M28.8493802,49.9748097 C28.8881108,49.9495995 28.9272065,49.9246629 28.9666671,49.9 C28.9666671,49.833333 28.9333341,49.8499995 28.8666671,49.95 C28.8609048,49.9586435 28.8551425,49.9669134 28.8493802,49.9748097 L28.8493802,49.9748097 Z M65.4996922,55.1805422 C65.47221,55.2232791 65.4618797,55.2617278 65.4687015,55.2958886 C65.4916393,55.2490346 65.5019696,55.2105858 65.4996922,55.1805422 L65.4996922,55.1805422 Z M65.4687015,55.2958886 C65.4768548,55.3367177 65.50951,55.3714215 65.5666671,55.4 C65.7000011,55.466667 65.7000011,55.533333 65.5666671,55.6 C65.4333331,55.533333 65.4000001,55.433334 65.4666671,55.3 C65.4673559,55.2986224 65.468034,55.2972519 65.4687015,55.2958886 L65.4687015,55.2958886 Z M61.2666671,54 C61.4000011,53.933333 61.5000001,53.9166665 61.5666671,53.95 C61.6333341,53.9833335 61.7000001,53.966667 61.7666671,53.9 C61.3666651,53.566665 60.9666691,53.133336 60.5666671,52.6 C60.2999991,52.399999 60.0333351,52.2166675 59.7666671,52.05 C59.4999991,51.8833325 59.3000011,51.700001 59.1666671,51.5 C58.6333311,51.233332 58.1333361,51.1499995 57.6666671,51.25 C57.1999981,51.3500005 56.7333361,51.4 56.2666671,51.4 L56.2666671,51.2 C56.2666671,51.066666 56.2000011,51 56.0666671,51 L55.7666671,51 C55.5666661,51.533336 55.5499996,52 55.7166671,52.4 C55.8833346,52.800002 55.9666671,53.233331 55.9666671,53.7 C56.1666681,53.833334 56.6333301,53.9 57.3666671,53.9 C58.1000041,53.966667 58.7333311,54 59.2666671,54 C59.8666701,54 60.4666641,54.066666 61.0666671,54.2 C61.2000011,54.2 61.2333341,54.1500005 61.1666671,54.05 C61.1000001,53.9499995 61.1333331,53.933333 61.2666671,54 Z M55.4325208,53.5744918 C55.5635176,53.2829939 55.5415664,52.9914989 55.3666671,52.7 C55.1666671,52.366665 55.0000011,52.033335 54.8666671,51.7 C55.0000011,51.233331 54.9166686,50.8833345 54.6166671,50.65 C54.3166656,50.4166655 54.1666671,50.133335 54.1666671,49.8 C53.9666661,49.666666 53.8666671,49.533334 53.8666671,49.4 C53.8666671,49.266666 53.7666681,49.2 53.5666671,49.2 C53.5666671,48.999999 53.6333331,48.9 53.7666671,48.9 C53.6333331,48.699999 53.4833346,48.533334 53.3166671,48.4 C53.1499996,48.266666 53.0000011,48.133334 52.8666671,48 C52.3999981,47.866666 52.0000021,47.6500015 51.6666671,47.35 C51.3333321,47.0499985 50.9000031,46.9 50.3666671,46.9 C50.4333341,46.966667 50.4000011,47.099999 50.2666671,47.3 C50.1333331,47.500001 49.9833346,47.699999 49.8166671,47.9 C49.6499996,48.100001 49.5000011,48.299999 49.3666671,48.5 C49.2333331,48.700001 49.1666671,48.866666 49.1666671,49 C49.1666671,49.800004 49.2666661,50.499997 49.4666671,51.1 C49.6666671,51.700003 49.6666671,52.33333 49.4666671,53 C49.6000011,53.066667 49.6333341,53.1833325 49.5666671,53.35 C49.5000001,53.5166675 49.4666671,53.699999 49.4666671,53.9 C49.6666671,53.966667 49.8333331,53.9833335 49.9666671,53.95 C50.1000011,53.9166665 50.2333331,53.933333 50.3666671,54 C50.5666681,53.933333 50.8166656,53.866667 51.1166671,53.8 C51.4166686,53.733333 51.6999991,53.766666 51.9666671,53.9 C52.7666711,53.699999 53.6666671,53.699999 54.6666671,53.9 C54.9333351,53.633332 55.1666671,53.5 55.3666671,53.5 C55.3943771,53.52771 55.4163284,53.5525406 55.4325208,53.5744918 L55.4325208,53.5744918 Z M56.6666671,28.9 L56.6666671,28.7 C56.1999981,29.033335 55.8333351,29.499997 55.5666671,30.1 C55.8333351,29.966666 56.0333331,29.766668 56.1666671,29.5 C56.3000011,29.233332 56.4666661,29.033334 56.6666671,28.9 Z M55.0666671,32.1 C55.2000011,31.966666 55.3000001,31.8166675 55.3666671,31.65 C55.4333341,31.4833325 55.5666661,31.333334 55.7666671,31.2 C55.5666661,31.2 55.4333341,31.299999 55.3666671,31.5 C55.3000001,31.700001 55.2000011,31.899999 55.0666671,32.1 Z M55.3666671,34.1 C55.2333331,33.899999 55.1500006,33.700001 55.1166671,33.5 C55.0833336,33.3 55.0000011,33.066668 54.8666671,32.8 C54.5999991,33.46667 54.4666671,34.13333 54.4666671,34.8 C54.6000011,34.466665 54.8999981,34.233334 55.3666671,34.1 Z M44.4872237,40.8179686 C46.0803794,42.2091301 47.6735193,43.2698036 49.2666671,44 C49.6000021,43.666665 49.8333331,43.333335 49.9666671,43 C50.1000011,42.666665 50.2999991,42.366668 50.5666671,42.1 C50.7000011,41.633331 50.8666661,41.1833355 51.0666671,40.75 C51.2666681,40.3166645 51.4666661,39.933335 51.6666671,39.6 C51.7333341,39.399999 51.8000001,39.233334 51.8666671,39.1 C51.9333341,38.966666 52.0333331,38.833334 52.1666671,38.7 C52.3000011,38.566666 52.3333341,38.4500005 52.2666671,38.35 C52.2000001,38.2499995 52.2333331,38.133334 52.3666671,38 C52.3666671,37.866666 52.4000001,37.766667 52.4666671,37.7 C52.5333341,37.633333 52.6000001,37.533334 52.6666671,37.4 C52.6666671,37.2 52.7333331,36.966668 52.8666671,36.7 C52.8666671,36.766667 52.9999991,36.533336 53.2666671,36 C53.4000011,35.666665 53.4833336,35.300002 53.5166671,34.9 C53.5500006,34.499998 53.6333331,34.233334 53.7666671,34.1 C53.7666671,34.366668 53.7166676,34.6166655 53.6166671,34.85 C53.5166666,35.0833345 53.4666671,35.366665 53.4666671,35.7 C53.7333351,35.366665 53.9666661,34.833337 54.1666671,34.1 C53.8999991,34.1 53.7000011,34.033334 53.5666671,33.9 C53.5666671,33.566665 53.6833326,33.2833345 53.9166671,33.05 C54.1500016,32.8166655 54.2666671,32.433336 54.2666671,31.9 C54.6000021,32.033334 54.7833336,32.000001 54.8166671,31.8 C54.8500006,31.599999 54.9333331,31.400001 55.0666671,31.2 C54.5333311,31.466668 54.1666671,31.633333 53.9666671,31.7 C53.7666661,31.833334 53.6166676,31.9833325 53.5166671,32.15 C53.4166666,32.3166675 53.2666681,32.366667 53.0666671,32.3 C52.9333331,32.3 52.9000001,32.3166665 52.9666671,32.35 C53.0333341,32.3833335 53.0666671,32.466666 53.0666671,32.6 C52.7333321,32.800001 52.4000021,32.9833325 52.0666671,33.15 C51.7333321,33.3166675 51.4000021,33.499999 51.0666671,33.7 C50.7333321,33.966668 50.3833356,34.2833315 50.0166671,34.65 L48.9666671,35.7 C48.7666661,35.833334 48.6333341,35.933333 48.5666671,36 C48.5000001,36.066667 48.4000011,36.2 48.2666671,36.4 L47.6666671,36.8 C47.4666661,36.933334 47.3000011,37.133332 47.1666671,37.4 C46.6999981,37.733335 46.2833356,38.1166645 45.9166671,38.55 C45.5499986,38.9833355 45.2000021,39.399998 44.8666671,39.8 C44.3999981,40.133335 44.1666671,40.366666 44.1666671,40.5 C44.3000011,40.366666 44.3833336,40.333333 44.4166671,40.4 C44.4500006,40.466667 44.5333331,40.433334 44.6666671,40.3 C44.6666671,40.433334 44.7000001,40.5 44.7666671,40.5 L44.8666671,40.5 C44.6581343,40.7085328 44.5311385,40.815145 44.4856776,40.8198382 L44.4872237,40.8179686 Z M50.3666671,55.5 C50.2333331,55.366666 50.1333341,55.266667 50.0666671,55.2 C50.0000001,55.133333 49.8666681,55.1 49.6666671,55.1 C50.1333361,54.833332 50.3666671,54.966664 50.3666671,55.5 Z M50.5666671,45.6 C50.7000011,45.6 50.8000001,45.633333 50.8666671,45.7 C50.9333341,45.766667 51.0000001,45.733334 51.0666671,45.6 L50.5666671,45.6 Z M48.7666671,53.9 L48.9666671,53.9 L48.9666671,53.7 C48.9666671,53.833334 48.9333341,53.866667 48.8666671,53.8 C48.8000001,53.733333 48.7666671,53.766666 48.7666671,53.9 Z M48.0666671,43.9 C48.2000011,43.9 48.3000001,43.9499995 48.3666671,44.05 C48.4333341,44.1500005 48.5000001,44.133334 48.5666671,44 C48.5000001,44 48.4333341,43.966667 48.3666671,43.9 C48.3000001,43.766666 48.2000011,43.766666 48.0666671,43.9 Z M48.2666671,45.8 C48.0666661,45.8 47.9500006,45.766667 47.9166671,45.7 C47.8833336,45.633333 47.8000011,45.566667 47.6666671,45.5 C47.6666671,45.166665 47.5166686,44.9500005 47.2166671,44.85 C46.9166656,44.7499995 46.6666681,44.5999995 46.4666671,44.4 L46.2666671,44.5999995 C45.9999991,44.266665 45.7666681,44.0166675 45.5666671,43.85 C45.3666661,43.6833325 45.1333351,43.500001 44.8666671,43.3 C44.5333321,43.166666 44.2166686,43.000001 43.9166671,42.8 C43.6166656,42.5999995 43.3333351,42.433334 43.0666671,42.3 C42.9333331,42.166666 42.8000011,42.0999995 42.6666671,42.0999995 C42.6000001,41.966666 42.5000011,41.833334 42.3666671,41.7 C42.2333331,41.566666 42.1000011,41.566666 41.9666671,41.7 C42.4333361,42.166669 42.9999971,42.5166655 43.6666671,42.75 C44.3333371,42.9833345 44.7333331,43.366664 44.8666671,43.9 C44.8666671,44.0999995 44.7333351,44.133334 44.4666671,44 C44.4666671,43.933333 44.5000001,43.9 44.5666671,43.9 C44.6333341,43.9 44.6666671,43.833334 44.6666671,43.7 C44.3999991,43.433332 44.1000021,43.233334 43.7666671,43.0999995 C43.4333321,42.966666 43.0666691,42.800001 42.6666671,42.5999995 C42.5333331,42.466666 42.3666681,42.3166675 42.1666671,42.15 C41.9666671,41.9833325 41.7333351,41.9 41.4666671,41.9 C41.4666671,42.166668 41.3333351,42.3 41.0666671,42.3 C41.0666671,42.166666 41.1333331,42.0999995 41.2666671,42.0999995 C41.4000011,42.0999995 41.4000011,42.033334 41.2666671,41.9 C40.7999981,42.233335 40.2833366,42.4833325 39.7166671,42.65 C39.1499976,42.8166675 38.7333351,43.166664 38.4666671,43.7 C38.2666661,43.833334 38.1000011,43.9833325 37.9666671,44.15 C37.8333331,44.3166675 37.7000011,44.466666 37.5666671,44.5999995 C37.8333351,44.5999995 38.0666661,44.500001 38.2666671,44.3 C38.4666671,44.0999995 38.6999991,44.066666 38.9666671,44.2 C38.5666651,44.5999995 38.1666691,44.8 37.7666671,44.8 C37.6333331,44.933334 37.5000011,45.0166665 37.3666671,45.05 C37.2333331,45.0833335 37.1000011,45.166666 36.9666671,45.3 C36.6999991,45.433334 36.4666671,45.5999995 36.2666671,45.8 C36.0666661,46.000001 35.8333351,46.199999 35.5666671,46.4 C35.4333331,46.533334 35.3500006,46.6499995 35.3166671,46.75 C35.2833336,46.8500005 35.2000011,46.966666 35.0666671,47.0999995 C34.9333331,47.366668 34.7333351,47.5 34.4666671,47.5 C34.2666661,47.5 34.1000011,47.666665 33.9666671,48 C34.3000021,49.066672 34.6833316,50.1166615 35.1166671,51.15 C35.5500026,52.1833385 35.8333331,53.266661 35.9666671,54.4 C36.1000011,54.533334 36.2999991,54.5999995 36.5666671,54.5999995 L37.1666671,54.5999995 C37.5000021,54.7333335 37.8166656,54.766667 38.1166671,54.7 C38.4166686,54.633333 38.6999991,54.5999995 38.9666671,54.5999995 C39.2333351,54.5999995 39.4666671,54.6166665 39.6666671,54.65 C39.8666681,54.6833335 40.0666661,54.7 40.2666671,54.7 C40.5333351,54.633333 40.8166656,54.533334 41.1166671,54.4 C41.4166686,54.266666 41.6999991,54.2 41.9666671,54.2 C42.2333351,54.066666 42.5999981,54 43.0666671,54 C43.3333351,53.733332 43.6999981,53.5166675 44.1666671,53.35 C44.6333361,53.1833325 45.0999981,53.066667 45.5666671,53 C45.8333351,52.866666 46.0833326,52.833333 46.3166671,52.9 C46.5500016,52.966667 46.7333331,52.933334 46.8666671,52.8 C47.0000011,52.466665 47.0833336,52.166668 47.1166671,51.9 C47.1500006,51.633332 47.1000011,51.466667 46.9666671,51.4 C46.9000001,51.066665 46.8666671,50.833334 46.8666671,50.7 L46.8666671,49.9 C46.8666671,49.833333 46.8333341,49.7166675 46.7666671,49.55 C46.7000001,49.3833325 46.6666671,49.200001 46.6666671,49 L46.6666671,48.7 C46.5333331,48.366665 46.5833326,48.066668 46.8166671,47.8 C47.0500016,47.533332 47.2333331,47.233335 47.3666671,46.9 C47.5000011,46.766666 47.6499996,46.633334 47.8166671,46.5 C47.9833346,46.366666 48.1333331,46.133335 48.2666671,45.8 Z M42.1666671,83.6 C42.3666681,83.6 42.4833336,83.433335 42.5166671,83.1 C42.5500006,82.766665 42.5000011,82.533334 42.3666671,82.4 C42.2333331,82.600001 42.1666671,82.799999 42.1666671,83 C42.1666671,83.266668 42.1666671,83.466666 42.1666671,83.6 Z M45.5666671,55.8 C45.5666671,55.599999 45.5000011,55.5 45.3666671,55.5 C45.0999991,55.566667 44.8500016,55.5833335 44.6166671,55.55 C44.3833326,55.5166665 44.1000021,55.533333 43.7666671,55.6 C44.1000021,55.733334 44.4166656,55.766667 44.7166671,55.7 C45.0166686,55.633333 45.2999991,55.666666 45.5666671,55.8 Z M44.4666671,56.7 C44.4666671,56.566666 44.5666661,56.4500005 44.7666671,56.35 C44.9666671,56.2499995 45.0666671,56.133334 45.0666671,56 C44.8666661,56.133334 44.7000011,56.166667 44.5666671,56.1 C44.4333331,56.033333 44.3000011,56.066666 44.1666671,56.2 C43.4333301,56.333334 42.7500036,56.4166665 42.1166671,56.45 C41.4833306,56.4833335 40.8000041,56.566666 40.0666671,56.7 C39.5333311,56.7 38.9833366,56.6833335 38.4166671,56.65 C37.8499976,56.6166665 37.3666691,56.766665 36.9666671,57.1 C36.9666671,57.566669 37.0999991,58.0166645 37.3666671,58.45 C37.6333351,58.8833355 37.8000001,59.299998 37.8666671,59.7 C37.8000001,59.7 37.7833336,59.6833335 37.8166671,59.65 C37.8500006,59.6166665 37.8333341,59.6 37.7666671,59.6 C37.7666671,60.800006 38.0333311,61.866662 38.5666671,62.8 C38.7000011,63.133335 38.8666661,63.4166655 39.0666671,63.65 C39.2666681,63.8833345 39.3000011,64.199998 39.1666671,64.6 C39.3000011,64.733334 39.3833336,64.9499985 39.4166671,65.25 C39.4500006,65.5500015 39.5999991,65.799999 39.8666671,66 L39.8666671,66.6 C39.8666671,66.866668 39.9333331,67.066666 40.0666671,67.2 C40.2000011,66.733331 40.3999991,66.300002 40.6666671,65.9 C40.9333351,65.5 41.1333331,65.066669 41.2666671,64.6 L41.5666671,63.85 C41.6333341,63.6833325 41.6666671,63.5 41.6666671,63.3 C41.8000011,62.766664 41.9999991,62.266669 42.2666671,61.8 C42.5333351,61.333331 42.6333341,60.833336 42.5666671,60.3 C42.7000011,60.099999 42.7833336,59.9166675 42.8166671,59.75 C42.8500006,59.5833325 42.9333331,59.333335 43.0666671,59 C43.2666681,58.666665 43.4833326,58.3166685 43.7166671,57.95 C43.9500016,57.5833315 44.1666661,57.233335 44.3666671,56.9 C44.4333341,56.9 44.4500006,56.866667 44.4166671,56.8 C44.3833336,56.733333 44.4000001,56.7 44.4666671,56.7 Z M42.5666671,56 L42.3666671,56 C42.2333331,56 42.1666671,55.933334 42.1666671,55.8 L42.2666671,55.8 C42.2666671,55.733333 42.2333341,55.666667 42.1666671,55.6 C41.8333321,55.800001 41.4500026,55.933333 41.0166671,56 C40.5833316,56.066667 40.2000021,56.199999 39.8666671,56.4 C40.4000031,56.4 40.8999981,56.366667 41.3666671,56.3 C41.8333361,56.233333 42.2333321,56.133334 42.5666671,56 Z M38.5666671,72.4 C38.9666691,72.133332 39.2833326,71.800002 39.5166671,71.4 C39.7500016,70.999998 39.7000021,70.566669 39.3666671,70.1 L39.3666671,70.8 L39.0666671,71.4 C39.0000001,71.533334 38.9000011,71.766665 38.7666671,72.1 C38.7666671,71.966666 38.8000001,71.866667 38.8666671,71.8 C38.9333341,71.733333 38.9000011,71.7 38.7666671,71.7 C38.2999981,72.1 38.0666671,72.699996 38.0666671,73.5 C38.4000021,73.166665 38.5666671,72.800002 38.5666671,72.4 Z M38.0628104,73.7354203 C38.0522893,73.7784736 38.0202417,73.8 37.9666671,73.8 C37.9000001,73.8 37.8666671,73.866666 37.8666671,74 C37.9950892,74 38.0616648,73.9072331 38.0663957,73.7216965 L38.0628104,73.7354203 Z M38.3477938,39.3186036 C38.3204173,39.2962373 38.293375,39.2733694 38.2666671,39.25 C38.2179761,39.2073954 38.1681739,39.1664578 38.1172605,39.1271873 C38.2064692,39.1786289 38.2833136,39.2424343 38.3477938,39.3186036 L38.3477938,39.3186036 Z M38.1172605,39.1271873 C37.8893345,38.9513832 37.6391383,38.8089885 37.3666671,38.7 C37.5666681,38.833334 37.7999991,38.966666 38.0666671,39.1 C38.0839517,39.1086423 38.1008162,39.1177047 38.1172605,39.1271873 L38.1172605,39.1271873 Z M38.3477938,39.3186036 C38.4548056,39.4450146 38.527763,39.6054796 38.5666671,39.8 L38.4666671,39.8 C38.5333341,39.866667 38.5666671,39.966666 38.5666671,40.1 C38.5666671,40.233334 38.6333331,40.3 38.7666671,40.3 C38.9000011,40.3 39.0000001,40.233334 39.0666671,40.1 C39.1333341,39.966666 39.1666671,39.866667 39.1666671,39.8 C38.866717,39.68002 38.5937614,39.5195558 38.3477938,39.3186036 L38.3477938,39.3186036 Z M35.5666671,59.7 L35.6666671,59.8 C35.7333341,59.866667 35.8333331,59.9 35.9666671,59.9 C35.9666671,59.699999 35.8333351,59.466668 35.5666671,59.2 L35.5666671,59.7 Z M38.0666671,40.8 C38.2000011,40.8 38.2666671,40.766667 38.2666671,40.6999996 C38.2666671,40.566666 38.3333331,40.5 38.4666671,40.5 C37.9999981,39.766663 37.4166706,39.1500025 36.7166671,38.65 C36.0166636,38.1499975 35.4000031,37.633336 34.8666671,37.1 C34.7333331,37.1 34.6333341,37.066667 34.5666671,37 C34.5000001,36.933333 34.4333341,36.9 34.3666671,36.9 C33.8999981,36.566665 33.5333351,36.4 33.2666671,36.4 C32.9333321,36.1999996 32.6166686,36.1499995 32.3166671,36.25 C32.0166656,36.3500005 31.7333351,36.4 31.4666671,36.4 L31.4666671,36.3 C31.4666671,36.233333 31.4000011,36.1999996 31.2666671,36.1999996 C31.1333331,36.533335 31.1666671,36.7833325 31.3666671,36.95 C31.5666681,37.1166675 31.6666671,37.333332 31.6666671,37.6 C31.6666671,37.733334 31.6000011,37.766667 31.4666671,37.6999996 C31.3333331,37.633333 31.3333331,37.666666 31.4666671,37.8 C31.3333331,38.066668 31.3000001,38.333332 31.3666671,38.6 C31.4333341,38.866668 31.5333331,39.066666 31.6666671,39.1999996 C31.6666671,39.533335 31.6166676,39.7833325 31.5166671,39.95 C31.4166666,40.1166675 31.3000011,40.299999 31.1666671,40.5 C31.2333341,40.833335 31.2666671,41.233331 31.2666671,41.6999996 C31.4666681,41.833334 31.6333331,41.9166665 31.7666671,41.95 C31.9000011,41.9833335 32.0333331,42.099999 32.1666671,42.3 C32.1666671,42.366667 32.1166676,42.3833335 32.0166671,42.35 C31.9166666,42.3166665 31.8666671,42.333333 31.8666671,42.4 C31.8666671,42.533334 31.9000001,42.6 31.9666671,42.6 C32.1000011,42.6 32.1666671,42.666666 32.1666671,42.8 C32.5000021,42.933334 32.6833336,43.099999 32.7166671,43.3 C32.7500006,43.500001 32.8000001,43.733332 32.8666671,44 C33.0000011,44.400002 33.1333331,44.7499985 33.2666671,45.05 C33.4000011,45.3500015 33.5333331,45.666665 33.6666671,46 C33.7333341,45.733332 33.8666661,45.500001 34.0666671,45.3 C34.2666681,45.099999 34.4000001,44.866668 34.4666671,44.6 C34.8666691,43.93333 35.3666641,43.4500015 35.9666671,43.15 C36.5666701,42.8499985 37.0333321,42.36667 37.3666671,41.6999996 C37.5666681,41.6999996 37.7000001,41.6500005 37.7666671,41.55 C37.8333341,41.4499995 37.9333331,41.4 38.0666671,41.4 C37.9333331,41.266666 37.9000001,41.166667 37.9666671,41.1 C38.0333341,41.033333 38.0666671,40.933334 38.0666671,40.8 Z M34.3666671,45.6 C34.8333361,45.066664 35.3166646,44.566669 35.8166671,44.1 C36.3166696,43.633331 36.6999991,43.133336 36.9666671,42.6 C36.4999981,43.066669 35.9833366,43.533331 35.4166671,44 C34.8499976,44.466669 34.5000011,44.999997 34.3666671,45.6 Z M33.6666671,54 C33.6666671,54.266668 33.8333321,54.4 34.1666671,54.4 C34.3000011,53.866664 34.2666681,53.466668 34.0666671,53.2 C33.8666661,52.933332 33.7333341,52.600002 33.6666671,52.2 L33.4666671,52.2 C33.6000011,51.866665 33.6166676,51.6166675 33.5166671,51.45 C33.4166666,51.2833325 33.2666681,50.966669 33.0666671,50.5 C32.9333331,50.166665 32.8333341,49.8166685 32.7666671,49.45 C32.7000001,49.0833315 32.5000021,48.833334 32.1666671,48.7 C31.2333291,49.500004 30.2666721,50.266663 29.2666671,51 C28.2666621,51.733337 27.4000041,52.7 26.6666671,53.9 C27.0000021,54.033334 27.3833316,54.0833335 27.8166671,54.05 C28.2500026,54.0166665 28.6333321,54.066666 28.9666671,54.2 C28.8333331,54.066666 28.6000021,53.9833335 28.2666671,53.95 C27.9333321,53.9166665 27.7666671,53.833334 27.7666671,53.7 L27.8666671,53.5 C28.4000031,53.633334 28.9166646,53.7499995 29.4166671,53.85 C29.9166696,53.9500005 30.4333311,54 30.9666671,54 C31.3000021,54 31.7166646,53.9833335 32.2166671,53.95 C32.7166696,53.9166665 33.1999981,53.933333 33.6666671,54 Z M31.1666671,44.9 C31.1666671,44.766666 31.1000011,44.600001 30.9666671,44.4 C30.8333331,44.199999 30.7000011,44.033334 30.5666671,43.9 C30.5000001,43.833333 30.4333341,43.8 30.3666671,43.8 C30.2333331,43.8 30.1333341,43.833333 30.0666671,43.9 C30.2000011,44.033334 30.3333331,44.2166655 30.4666671,44.45 C30.6000011,44.6833345 30.8333321,44.833333 31.1666671,44.9 Z M31.1666671,39.8 C31.2333341,39.733333 31.2666671,39.600001 31.2666671,39.4 L31.2666671,39.2 C31.2666671,39.333334 31.2500006,39.433333 31.2166671,39.5 C31.1833336,39.566667 31.1666671,39.666666 31.1666671,39.8 Z M30.5666671,41 C30.5666671,40.8 30.6999991,40.566668 30.9666671,40.3 C30.8333331,40.033332 30.8000001,39.733335 30.8666671,39.4 C30.9333341,39.066665 30.9666671,38.766668 30.9666671,38.5 C30.8333331,38.366666 30.7666671,38.200001 30.7666671,38 C30.7666671,37.733332 30.7000011,37.533334 30.5666671,37.4 C30.5666671,37.733335 30.5166676,37.9833325 30.4166671,38.15 C30.3166666,38.3166675 30.2666671,38.566665 30.2666671,38.9 C30.2666671,38.966667 30.2833336,39.033333 30.3166671,39.1 C30.3500006,39.166667 30.3666671,39.266666 30.3666671,39.4 C29.8333311,39.199999 29.6833326,38.8166695 29.9166671,38.25 C30.1500016,37.6833305 30.2666671,37.166669 30.2666671,36.7 C30.1333331,36.433332 30.0333341,36.166668 29.9666671,35.9 C29.9000001,35.633332 29.8666671,35.3 29.8666671,34.9 C29.6666661,34.366664 29.3833356,33.8833355 29.0166671,33.45 C28.6499986,33.0166645 28.2666691,32.633335 27.8666671,32.3 C27.5999991,32.166666 27.3666681,32.0833335 27.1666671,32.05 C26.9666661,32.0166665 26.8000011,31.900001 26.6666671,31.7 L26.6666671,31.4 L26.0666671,31.1 C25.9333331,31.033333 25.7666681,30.933334 25.5666671,30.8 C25.7000011,31.266669 25.8499996,31.7166645 26.0166671,32.15 C26.1833346,32.5833355 26.2666671,33.033331 26.2666671,33.5 C26.4666681,33.633334 26.5833336,33.7833325 26.6166671,33.95 C26.6500006,34.1166675 26.7333331,34.266666 26.8666671,34.4 L26.8666671,34.9 C27.1333351,35.833338 27.4499986,36.8 27.8166671,37.8 C28.1833356,38.8 28.4999991,39.766662 28.7666671,40.7 C28.9666681,40.833334 29.1499996,40.999999 29.3166671,41.2 C29.4833346,41.400001 29.7333321,41.5 30.0666671,41.5 C29.9333331,41.233332 29.7666681,40.9833345 29.5666671,40.75 C29.3666661,40.5166655 29.3999991,40.233335 29.6666671,39.9 C30.0000021,40.033334 30.2000001,40.2166655 30.2666671,40.45 C30.3333341,40.6833345 30.4333331,40.866666 30.5666671,41 Z M23.9666671,30.3 L23.9666671,29.8 L23.7666671,29.8 C23.7666671,29.866667 23.8000001,29.933333 23.8666671,30 C23.9333341,30.066667 23.9666671,30.166666 23.9666671,30.3 Z M22.0666671,27.1 C22.2000011,27.1 22.3666661,27.266665 22.5666671,27.6 C22.2333321,27.399999 22.0666671,27.233334 22.0666671,27.1 Z M74.0687818,55.4195082 C74.0770666,55.6598237 74.1096948,55.9366524 74.1666671,56.25 C74.2333341,56.6166685 74.2000011,57.066664 74.0666671,57.6 C74.0000001,57.6 73.9000011,57.5833335 73.7666671,57.5499993 C73.6333331,57.5166665 73.5666671,57.400001 73.5666671,57.2 L73.6666671,57.2 C73.7333341,57.2 73.8333331,57.266666 73.9666671,57.4 C73.9666671,56.933331 73.9333341,56.5166685 73.8666671,56.15 C73.8000001,55.7833315 73.7666671,55.433335 73.7666671,55.1 L73.6666671,55 C73.6000001,54.933333 73.5666671,54.833334 73.5666671,54.7 C73.7000011,54.366665 73.8000001,54.0166685 73.8666671,53.65 C73.9333341,53.2833315 74.1999981,53.066667 74.6666671,53 C74.6666671,52.866666 74.6333341,52.8 74.5666671,52.8 C74.5000001,52.8 74.5333331,52.733334 74.6666671,52.6 C74.5333331,52.466666 74.4333341,52.466666 74.3666671,52.6 C74.3000001,52.733334 74.2000011,52.733334 74.0666671,52.6 C74.4000021,52.333332 74.5833336,51.8833365 74.6166671,51.25 C74.6500006,50.6166635 74.6666671,50.133335 74.6666671,49.8 C74.6666671,49.666666 74.6333341,49.633333 74.5666671,49.7 C74.5000001,49.766667 74.4000011,49.8 74.2666671,49.8 C74.4000011,49.399998 74.5000001,49.0499993 74.5666671,48.75 C74.6333341,48.4499985 74.6666671,48.133335 74.6666671,47.8 C74.3999991,47.933334 73.9666701,48.099999 73.3666671,48.3 L73.3666671,48 C73.0999991,48 72.8666681,48.099999 72.6666671,48.3 C72.6666671,48.633335 72.7333331,48.8499995 72.8666671,48.95 C73.0000011,49.0499993 73.0666671,49.266665 73.0666671,49.6 C73.2000011,49.733334 73.3166666,49.833333 73.4166671,49.9 C73.5166676,49.966667 73.5000011,50.099999 73.3666671,50.3 C73.0999991,50.099999 72.8666681,49.866668 72.6666671,49.6 C72.4666661,49.333332 72.2333351,49.133334 71.9666671,49 L71.8666671,49 L71.7666671,48.9 C71.5666661,48.966667 71.3333351,49.133332 71.0666671,49.4 C70.5333311,49.199999 70.1000021,49.233332 69.7666671,49.5 C69.4333321,49.766668 69.1000021,49.966666 68.7666671,50.1 L68.7666671,49.9 C68.9000011,49.633332 69.0333331,49.5 69.1666671,49.5 C69.3666681,49.5 69.5333331,49.333335 69.6666671,49 C69.6666671,48.933333 69.6000011,48.9166665 69.4666671,48.95 C69.3333331,48.9833335 69.2666671,48.966667 69.2666671,48.9 C69.2666671,48.699999 69.4499986,48.5833335 69.8166671,48.5499993 C70.1833356,48.5166665 70.3666671,48.433334 70.3666671,48.3 C70.3666671,48.233333 70.3000011,48.133334 70.1666671,48 C70.1000001,47.933333 70.0000011,47.866667 69.8666671,47.8 C69.7333331,47.466665 69.5000021,47.100002 69.1666671,46.7 C68.8999991,46.7 68.7666671,46.600001 68.7666671,46.4 C68.5666661,45.73333 67.9000061,45.300001 66.7666671,45.1 L66.6666671,45.3 C66.3333321,45.166666 66.1333341,45.000001 66.0666671,44.8 C66.0000001,44.599999 65.9000011,44.400001 65.7666671,44.2 L65.7666671,43.5 C65.6333331,43.166665 65.3333361,42.9166675 64.8666671,42.75 C64.3999981,42.5833325 64.1666671,42.366668 64.1666671,42.1 C64.1666671,41.899999 64.2499996,41.733334 64.4166671,41.6 C64.5833346,41.466666 64.7333331,41.333334 64.8666671,41.2 L65.1666671,41.2 C65.3666681,40.866665 65.6166656,40.466669 65.9166671,40 C66.2166686,39.533331 66.4666661,39.033336 66.6666671,38.5 C66.7333341,38.366666 66.7833336,38.166668 66.8166671,37.9 C66.8500006,37.633332 66.8000011,37.433334 66.6666671,37.3 C66.7333341,36.766664 66.6666671,36.266669 66.4666671,35.8 C66.4666671,35.733333 66.5000001,35.7 66.5666671,35.7 C66.6333341,35.7 66.7000001,35.633334 66.7666671,35.5 L66.7666671,35.6 C66.7666671,35.666667 66.8333331,35.7 66.9666671,35.7 L69.6666671,33.3 C69.6666671,33.166666 69.6000011,32.966668 69.4666671,32.7 C69.3333331,32.433332 69.2666671,32.233334 69.2666671,32.1 C69.2666671,31.766665 69.3999991,31.6 69.6666671,31.6 C69.5333331,31.933335 69.5000001,32.199999 69.5666671,32.4 C69.6333341,32.600001 69.7333331,32.799999 69.8666671,33 C70.8000051,32.199996 71.6333301,31.13334 72.3666671,29.8 C72.2333331,29.8 72.1666671,29.833333 72.1666671,29.9 L71.9666671,29.9 C72.5666701,29.299997 73.0333321,28.366673 73.3666671,27.1 C73.5000011,26.899999 73.6333331,26.7500005 73.7666671,26.65 C73.9000011,26.5499993 73.9666671,26.400001 73.9666671,26.2 C74.1000011,26.066666 74.2333331,25.966667 74.3666671,25.9 C74.5000011,25.833333 74.6666671,25.766667 74.8666671,25.7 C74.8666671,25.566666 74.8333341,25.5 74.7666671,25.5 C74.7000001,25.5 74.7333331,25.433334 74.8666671,25.3 L74.9666671,25.3 L74.9666671,25.5 C75.5000031,25.233332 75.9999981,24.900002 76.4666671,24.5 L77.8666671,23.3 C78.0666681,23.433334 78.2166666,23.400001 78.3166671,23.2 C78.4166676,22.999999 78.5666661,22.999999 78.7666671,23.2 C78.4333321,23.333334 78.2666671,23.433333 78.2666671,23.5 C78.3333341,23.833335 78.4499996,23.9166675 78.6166671,23.75 C78.7833346,23.5833325 78.9333331,23.566666 79.0666671,23.7 C79.0666671,23.900001 79.0166676,23.9833335 78.9166671,23.95 C78.8166666,23.9166665 78.7666671,23.966666 78.7666671,24.1 C78.7666671,24.233334 78.8166666,24.3166665 78.9166671,24.35 C79.0166676,24.3833335 79.1333331,24.466666 79.2666671,24.6 C79.4000011,24.6 79.4666671,24.666666 79.4666671,24.8 C79.4666671,24.933334 79.5333331,25.033333 79.6666671,25.1 C79.8000011,25.300001 79.9000001,25.466666 79.9666671,25.6 C80.0333341,25.733334 80.0000011,25.866666 79.8666671,26 C79.8666671,26.133334 79.9166666,26.2166665 80.0166671,26.25 C80.1166676,26.2833335 80.1000011,26.399999 79.9666671,26.6 C79.7666661,26.6 79.5333351,26.333336 79.2666671,25.8 C78.9999991,25.733333 78.8666671,25.600001 78.8666671,25.4 C78.8666671,25.133332 78.7666681,25 78.5666671,25 C78.4333331,24.866666 78.3166676,24.833333 78.2166671,24.9 C78.1166666,24.966667 78.0000011,25 77.8666671,25 C77.3333311,25.133334 76.8333361,25.466664 76.3666671,26 C75.8999981,26.533336 75.4333361,26.966665 74.9666671,27.3 C74.9000001,27.433334 74.8000011,27.566666 74.6666671,27.7 C74.5333331,27.833334 74.4666671,28.033332 74.4666671,28.3 C74.4666671,28.433334 74.4833336,28.566666 74.5166671,28.7 C74.5500006,28.833334 74.4666681,28.966666 74.2666671,29.1 C74.3333341,29.1 74.3833336,29.1166665 74.4166671,29.15 C74.4500006,29.1833335 74.5000001,29.2 74.5666671,29.2 L74.6666671,29.2 L74.6666671,29.8 C74.8000011,29.599999 74.9000001,29.333335 74.9666671,29 C75.0333341,28.666665 75.1666671,28.433334 75.3666671,28.3 C75.3666671,28.500001 75.3000011,28.666666 75.1666671,28.8 C75.0333331,28.933334 74.9666671,29.133332 74.9666671,29.4 L74.8666671,29.4 C74.8666671,29.666668 74.7333351,30.13333 74.4666671,30.8 C74.3333331,31.000001 74.2333341,31.166666 74.1666671,31.3 C74.1000001,31.433334 74.1333331,31.633332 74.2666671,31.9 C74.1333331,31.766666 74.0500006,31.666667 74.0166671,31.6 C73.9833336,31.533333 73.9666671,31.333335 73.9666671,31 L73.7666671,31 L73.7666671,30.3 C73.0999971,30.96667 72.5833356,31.6833295 72.2166671,32.45 C71.8499986,33.2166705 71.3000041,33.93333 70.5666671,34.6 C71.0333361,35.133336 71.5833306,35.5833315 72.2166671,35.95 C72.8500036,36.3166685 73.5333301,36.633332 74.2666671,36.9 L74.4666671,36.7 C74.6666671,36.833334 74.8166666,36.933333 74.9166671,37 C75.0166676,37.066667 75.1666671,37.166666 75.3666671,37.3 C75.7000021,37.366667 76.0499986,37.433333 76.4166671,37.5 C76.7833356,37.566667 77.1999981,37.666666 77.6666671,37.8 C78.1333361,37.933334 78.6166646,38.0499993 79.1166671,38.15 C79.6166696,38.2500005 80.0999981,38.366666 80.5666671,38.5 L80.5666671,38.7 C80.2333321,38.7 80.0333341,38.733333 79.9666671,38.8 C79.9000001,38.866667 79.8000011,38.933333 79.6666671,39 C79.6666671,39.133334 79.6500006,39.266666 79.6166671,39.4 C79.5833336,39.533334 79.4666681,39.6 79.2666671,39.6 C79.2666671,39.733334 79.3000001,39.8166665 79.3666671,39.85 C79.4333341,39.8833335 79.4666671,39.966666 79.4666671,40.1 C79.6666671,40.1 79.8166666,40.066667 79.9166671,40 C80.0166676,39.933333 80.1666671,39.966666 80.3666671,40.1 C80.3666671,40.300001 80.3000011,40.3833335 80.1666671,40.35 C80.0333331,40.3166665 79.9333341,40.366666 79.8666671,40.5 C79.8666671,40.766668 79.9499996,40.933333 80.1166671,41 C80.2833346,41.066667 80.3000011,41.233332 80.1666671,41.5 L79.6666671,41.5 L79.6666671,41.7 C79.3333321,41.566666 79.1166676,41.5166665 79.0166671,41.5499993 C78.9166666,41.5833335 78.7666681,41.533334 78.5666671,41.4 C78.2333321,41.533334 77.9833346,41.7499985 77.8166671,42.0499993 C77.6499996,42.3500015 77.4333351,42.666665 77.1666671,43 C76.9666661,43.333335 76.8500006,43.7499975 76.8166671,44.25 C76.7833336,44.7500025 76.7000011,45.199998 76.5666671,45.6 C76.5666671,45.733334 76.6333331,45.8 76.7666671,45.8 C76.9000011,45.8 76.9666671,45.866666 76.9666671,46 C76.8333331,46.133334 76.7666671,46.366665 76.7666671,46.7 C76.7666671,46.833334 76.6666671,46.9 76.4666671,46.9 C76.2666661,47.166668 76.1000011,47.433332 75.9666671,47.7 L75.5666671,48.5 C75.7000011,48.766668 75.7000011,49.033332 75.5666671,49.3 C75.4333331,49.566668 75.3666671,49.766666 75.3666671,49.9 C75.2333331,50.100001 75.2000001,50.3166655 75.2666671,50.5499993 C75.3333341,50.7833345 75.3000011,50.999999 75.1666671,51.2 C75.1666671,51.466668 75.1166676,51.699999 75.0166671,51.9 C74.9166666,52.100001 74.9000001,52.266666 74.9666671,52.4 C74.9666671,52.866669 74.9166676,53.233332 74.8166671,53.5 C74.7166666,53.766668 74.4666691,53.9 74.0666671,53.9 C73.9333331,54.233335 73.9333331,54.499999 74.0666671,54.7 C74.2000011,54.900001 74.2666671,55.166665 74.2666671,55.5 C74.1470435,55.5 74.0810822,55.4731696 74.0687818,55.4195082 L74.0687818,55.4195082 Z M77.3666671,41.5 C77.4333339,41.233332 77.4500006,41.0166675 77.4166671,40.85 C77.3833336,40.6833325 77.3666671,40.500001 77.3666671,40.3 C77.0333321,40.3 76.8000011,40.3833325 76.6666671,40.55 C76.5333331,40.7166675 76.3333351,40.866666 76.0666671,41 C76.3333351,40.666665 76.6999981,40.366668 77.1666671,40.1 C77.0333331,39.966666 77.0166666,39.766668 77.1166671,39.5 C77.2166676,39.233332 77.1666681,39.033334 76.9666671,38.9 C76.4333311,38.699999 75.9833356,38.466668 75.6166671,38.2 C75.2499986,37.933332 74.7000041,37.733334 73.9666671,37.6 C73.9666671,37.800001 73.9000011,37.9499995 73.7666671,38.05 C73.6333331,38.1500005 73.5000011,38.2 73.3666671,38.2 C73.3666671,38.266667 73.4000001,38.3499995 73.4666671,38.45 C73.5333341,38.5500005 73.5666671,38.699999 73.5666671,38.9 C73.2333321,38.9 73.0166676,38.733335 72.9166671,38.4 C72.8166666,38.066665 72.6666681,37.733335 72.4666671,37.4 C72.4000001,37.333333 72.3333341,37.3 72.2666671,37.3 L72.1666671,37.3 L72.1666671,37.1 C71.8333321,36.899999 71.5333351,36.8166665 71.2666671,36.85 C70.9999991,36.8833335 70.7000021,36.9 70.3666671,36.9 C70.0999991,37.166668 69.8000021,37.3 69.4666671,37.3 C69.3333331,37.166666 69.3000001,37.1 69.3666671,37.1 L69.2666671,37.1 C69.2666671,37.233334 69.1666681,37.3499995 68.9666671,37.45 C68.7666671,37.5500005 68.5666681,37.666666 68.3666671,37.8 C68.3666671,38.133335 68.3166676,38.433332 68.2166671,38.7 C68.1166666,38.966668 68.0000011,39.266665 67.8666671,39.6 L67.8666671,39.4 C67.7333331,39.866669 67.5500016,40.233332 67.3166671,40.5 C67.0833326,40.766668 66.9000011,41.099998 66.7666671,41.5 C67.1000021,41.833335 67.3999991,42.199998 67.6666671,42.6 C67.6666671,42.466666 67.7000001,42.3500005 67.7666671,42.25 C67.8333341,42.1499995 67.8666671,42.033334 67.8666671,41.9 C68.0000011,41.766666 68.0500006,41.6500005 68.0166671,41.55 C67.9833336,41.4499995 68.0666661,41.4 68.2666671,41.4 C68.2666671,41.533334 68.2333341,41.6499995 68.1666671,41.75 C68.1000001,41.8500005 68.0666671,41.966666 68.0666671,42.1 C68.0666671,42.233334 68.0333341,42.3499995 67.9666671,42.45 C67.9000001,42.5500005 67.8666671,42.666666 67.8666671,42.8 C67.8666671,42.933334 67.9499996,43.0499995 68.1166671,43.15 C68.2833346,43.2500005 68.4333331,43.366666 68.5666671,43.5 L68.9666671,43.5 C69.1000011,43.5 69.2000001,43.566666 69.2666671,43.7 C69.2666671,43.833334 69.3666661,43.9 69.5666671,43.9 C69.7666671,43.9 69.8000011,43.933333 69.6666671,44 L69.9666671,44 C70.1000011,44.333335 70.2000001,44.6166655 70.2666671,44.85 C70.3333341,45.0833345 70.3666671,45.333332 70.3666671,45.6 C70.5666681,45.800001 70.7666671,45.999999 70.9666671,46.2 C71.1666681,46.400001 71.2666671,46.633332 71.2666671,46.9 L71.0666671,46.9 C71.0666671,46.833333 71.0333341,46.8 70.9666671,46.8 C70.8333331,46.8 70.7666671,46.833333 70.7666671,46.9 C70.9000011,47.033334 71.0000001,47.166666 71.0666671,47.3 C71.1333341,47.433334 71.2666671,47.599999 71.4666671,47.8 L71.7666671,47.8 L72.4666671,47.1 C72.4666671,46.833332 72.5333331,46.7 72.6666671,46.7 C72.5333331,47.033335 72.4000011,47.2833325 72.2666671,47.45 C72.1333331,47.6166675 71.9666681,47.833332 71.7666671,48.1 C72.1000021,48.033333 72.3999991,47.800002 72.6666671,47.4 C73.0000021,47.266666 73.2833326,47.066668 73.5166671,46.8 C73.7500016,46.533332 73.9999991,46.266668 74.2666671,46 C74.0666661,45.533331 74.0000001,45.000003 74.0666671,44.4 C73.8666661,44.4 73.7666671,44.333334 73.7666671,44.2 C73.4999991,44.466668 73.2666671,44.666666 73.0666671,44.8 C73.0666671,44.666666 73.0333341,44.6 72.9666671,44.6 L72.8666671,44.6 L72.8666671,44.4 C73.4666701,43.933331 73.9333321,43.633334 74.2666671,43.5 L74.2666671,43.2 L74.6666671,43.2 C74.9333351,42.666664 75.2333321,42.466666 75.5666671,42.6 C75.8333351,42.333332 76.1166656,42.133334 76.4166671,42 C76.7166686,41.866666 77.0333321,41.700001 77.3666671,41.5 Z M77.6867819,23.320961 C77.799625,23.4438613 77.7929201,23.5368735 77.6666671,23.6 C77.5333331,23.666667 77.4333341,23.766666 77.3666671,23.9 C77.3666671,23.766666 77.4166666,23.666667 77.5166671,23.6 C77.6047185,23.5412991 77.6540042,23.456756 77.6645254,23.3463686 L77.6867819,23.320961 Z M72.4666671,48.7 C72.4666671,48.566666 72.5000001,48.466667 72.5666671,48.4 C72.6333341,48.333333 72.6000011,48.3 72.4666671,48.3 L72.3666671,48.5 C72.4333341,48.5 72.4666671,48.533333 72.4666671,48.6 L72.4666671,48.7 Z M74.2666671,30.5 C74.2666671,30.366666 74.3000001,30.2166675 74.3666671,30.05 C74.4333341,29.8833325 74.4000011,29.733334 74.2666671,29.6 C74.0666661,29.866668 74.0666661,30.166665 74.2666671,30.5 Z M73.0666671,29.1 C73.2000011,28.766665 73.3499996,28.466668 73.5166671,28.2 C73.6833346,27.933332 73.7666671,27.633335 73.7666671,27.3 C73.6333331,27.433334 73.5166676,27.6833315 73.4166671,28.05 C73.3166666,28.4166685 73.2000011,28.766665 73.0666671,29.1 Z M69.4666671,35.8 L70.3666671,35.8 C70.1666661,35.733333 70.0500006,35.633334 70.0166671,35.5 C69.9833336,35.366666 69.9333341,35.233334 69.8666671,35.1 C69.7333331,35.233334 69.6666671,35.366666 69.6666671,35.5 C69.6666671,35.633334 69.6000011,35.733333 69.4666671,35.8 Z M69.6666671,36.4 C69.5333331,36.266666 69.4000011,36.2 69.2666671,36.2 C69.2000001,36.400001 69.1000011,36.5499995 68.9666671,36.65 C68.8333331,36.7500005 68.7666671,36.899999 68.7666671,37.1 C68.9666681,36.899999 69.1333331,36.766667 69.2666671,36.7 C69.4000011,36.633333 69.5333331,36.533334 69.6666671,36.4 Z M48.1349199,21.8047591 C48.2188395,21.8244518 48.2769277,21.806572 48.3091845,21.7511195 C48.2520909,21.7600461 48.1940028,21.777926 48.1349199,21.8047591 L48.1349199,21.8047591 Z M48.3091845,21.7511195 C48.3365989,21.7039915 48.3453554,21.6297249 48.3354542,21.5283194 C48.4881403,21.6785245 48.4340248,21.7332346 48.3166671,21.75 C48.3141748,21.750356 48.3116806,21.7507292 48.3091845,21.7511195 L48.3091845,21.7511195 Z M48.4790135,21.585869 C48.4699941,21.4943039 48.399212,21.3656811 48.2666671,21.2 C48.303866,21.3301963 48.3267951,21.4396361 48.3354542,21.5283194 L48.4790135,21.585869 Z M48.1349199,21.8047591 C47.9547529,21.8865839 47.7653363,22.0516634 47.5666671,22.3 L47.5666671,22.8 C47.2999991,22.8 47.1666671,22.933332 47.1666671,23.2 C47.1666671,23.333334 47.2000001,23.3833335 47.2666671,23.35 C47.3333341,23.3166665 47.4333331,23.3 47.5666671,23.3 C47.5666671,23.566668 47.5000011,23.7 47.3666671,23.7 C47.5000011,23.833334 47.6166666,23.866667 47.7166671,23.8 C47.8166676,23.733333 47.9333331,23.766666 48.0666671,23.9 C47.8666661,24.166668 47.8000001,24.4833315 47.8666671,24.85 C47.9333341,25.2166685 47.8666681,25.533332 47.6666671,25.8 C47.6000001,25.733333 47.5666671,25.466669 47.5666671,25 C47.5666671,24.799999 47.5000011,24.666667 47.3666671,24.6 C47.3379158,24.5856243 47.3153642,24.5681489 47.2990124,24.5475737 C47.3073241,24.5825247 47.2632091,24.6 47.1666671,24.6 C47.0333331,24.6 46.9666671,24.466668 46.9666671,24.2 L46.6666671,24.5 C46.6000001,24.566667 46.4666671,24.666666 46.2666671,24.8 C46.1333331,24.666666 46.1000001,24.6 46.1666671,24.6 C46.2333341,24.6 46.2666671,24.533334 46.2666671,24.4 C46.1333331,24.533334 46.0000011,24.6 45.8666671,24.6 C45.7333331,24.6 45.5666681,24.666666 45.3666671,24.8 C45.2333331,24.8 45.1166676,24.8833325 45.0166671,25.05 C44.9166666,25.2166675 44.8666671,25.366666 44.8666671,25.5 C44.7333331,25.633334 44.7000001,25.7 44.7666671,25.7 C44.8333341,25.7 44.8000011,25.733333 44.6666671,25.8 C44.6666671,25.933334 44.6000011,26 44.4666671,26 C44.4000001,26 44.3666671,26.066666 44.3666671,26.2 C44.2333331,26.533335 44.0333351,26.7 43.7666671,26.7 C43.6333331,27.166669 43.4833346,27.533332 43.3166671,27.8 C43.1499996,28.066668 43.0000011,28.433331 42.8666671,28.9 C42.91592,28.9 42.9515275,28.8954516 42.9734897,28.8863548 L42.6166671,29.6 C42.4499996,29.933335 42.4333331,30.333331 42.5666671,30.8 L42.3666671,31 C42.5664462,31.5993373 42.4336315,32.0656293 41.9682192,32.39889 C41.9754899,32.6286998 42.0083056,32.8457348 42.0666671,33.05 C42.1333341,33.2833345 42.1000011,33.566665 41.9666671,33.9 C42.5000031,33.9 42.8666661,34.199997 43.0666671,34.8 C42.8666661,35.133335 42.8499996,35.5499975 43.0166671,36.05 C43.1833346,36.5500025 43.2000011,36.966665 43.0666671,37.3 L42.8666671,37.3 C43.0000011,37.099999 43.0333341,36.9166675 42.9666671,36.75 C42.9000001,36.5833325 42.8666671,36.400001 42.8666671,36.2 C42.8666671,36.066666 42.8333341,36 42.7666671,36 C42.7000001,36 42.6666671,35.933334 42.6666671,35.8 C42.5333331,35.199997 42.3000021,34.733335 41.9666671,34.4 C41.8333331,34.266666 41.6500016,34.1500005 41.4166671,34.05 C41.1833326,33.9499995 41.0666671,33.666669 41.0666671,33.2 C41.2000011,33.2 41.2666671,33.166667 41.2666671,33.1 C41.2666671,33.033333 41.3333331,33 41.4666671,33 C41.6000011,32.799999 41.6333341,32.5833345 41.5666671,32.35 C41.5000001,32.1166655 41.5333331,31.900001 41.6666671,31.7 C41.5333331,31.566666 41.4666671,31.366668 41.4666671,31.1 C41.4666671,30.833332 41.4000011,30.566668 41.2666671,30.3 C40.5333301,29.566663 40.0666681,28.566673 39.8666671,27.3 C39.3333311,27.433334 38.8666691,27.200003 38.4666671,26.6 L38.4666671,26.9 C38.3333331,27.033334 38.2666671,27.066667 38.2666671,27 C38.2666671,26.933333 38.2000011,26.9 38.0666671,26.9 C38.3333351,27.100001 38.4500006,27.399998 38.4166671,27.8 C38.3833336,28.200002 38.4333331,28.566665 38.5666671,28.9 C38.4333331,29.033334 38.2666681,29.1833325 38.0666671,29.35 C37.8666661,29.5166675 37.8000001,29.766665 37.8666671,30.1 C37.8666671,30.233334 37.9666671,30.3499995 38.1666671,30.45 C38.3666681,30.5500005 38.5000001,30.666666 38.5666671,30.8 C38.7000011,30.933334 38.7666671,31.066666 38.7666671,31.2 C39.0333351,31.466668 39.1000011,31.633333 38.9666671,31.7 L38.7666671,31.6 C38.6333331,31.6 38.5666671,31.633333 38.5666671,31.7 L38.4666671,31.7 L38.4666671,31.2 C38.2666661,31 38.1000011,30.8166675 37.9666671,30.65 C37.8333331,30.4833325 37.7000011,30.300001 37.5666671,30.1 C37.4333331,29.966666 37.4333331,29.7833345 37.5666671,29.55 C37.7000011,29.3166655 37.8000001,29.166667 37.8666671,29.1 C38.2000021,28.566664 38.2500016,28.066669 38.0166671,27.6 C37.7833326,27.133331 37.5666681,26.666669 37.3666671,26.2 C37.1666661,25.933332 37.0000011,25.766667 36.8666671,25.7 L36.0666671,25.3 C35.7333321,25.166666 35.3500026,25 34.9166671,24.8 C34.4833316,24.599999 34.1000021,24.400001 33.7666671,24.2 C33.7666671,24.133333 33.8000001,24.0833335 33.8666671,24.05 C33.9333341,24.0166665 34.0333331,23.900001 34.1666671,23.7 C34.0333331,23.5 33.8833346,23.366667 33.7166671,23.3 C33.5499996,23.233333 33.4666671,23.133334 33.4666671,23 C33.4666671,22.866666 33.5000001,22.8 33.5666671,22.8 C33.6333341,22.8 33.6666671,22.733334 33.6666671,22.6 L33.6666671,22.3 C33.7333341,22.166666 33.8000001,22.1 33.8666671,22.1 C33.9333341,22.1 33.9666671,22.033334 33.9666671,21.9 C34.1000011,21.766666 34.1666671,21.600001 34.1666671,21.4 L34.1666671,21.3 C34.1666671,21.366667 34.1000011,21.4 33.9666671,21.4 C34.1000011,21.133332 34.2333331,20.933334 34.3666671,20.8 C34.5000011,20.666666 34.6666661,20.5 34.8666671,20.3 C35.0000011,20.166666 35.1166666,19.966668 35.2166671,19.7 C35.3166676,19.433332 35.4333331,19.233334 35.5666671,19.1 C35.7666681,18.766665 35.9666671,18.5166675 36.1666671,18.35 C36.3666681,18.1833325 36.5333331,17.933335 36.6666671,17.6 C36.6666671,17.533333 36.6333341,17.5 36.5666671,17.5 C36.5000001,17.5 36.4666671,17.433334 36.4666671,17.3 C36.8000021,16.966665 36.9666671,16.666668 36.9666671,16.4 C36.8333331,16.533334 36.7333341,16.7166655 36.6666671,16.95 C36.6000001,17.1833345 36.4000021,17.3 36.0666671,17.3 C36.4000021,16.833331 36.6833326,16.4500015 36.9166671,16.15 C37.1500016,15.8499985 37.3666661,15.466669 37.5666671,15 L37.3666671,15 C37.3666671,14.799999 37.4000001,14.6833335 37.4666671,14.65 C37.5333341,14.6166665 37.6333331,14.533334 37.7666671,14.4 L36.9666671,14.4 L36.8666671,14.3 C36.3999981,14.166666 35.9666671,14.0833335 35.5666671,14.05 C35.1666651,14.0166665 34.7000031,14.099999 34.1666671,14.3 C34.3000011,14.099999 34.4999991,13.966667 34.7666671,13.9 C35.0333351,13.833333 35.2333331,13.700001 35.3666671,13.5 C35.5666681,13.633334 35.6833336,13.6166675 35.7166671,13.45 C35.7500006,13.2833325 35.8333331,13.133334 35.9666671,13 C36.1000011,13.200001 36.2666661,13.3166665 36.4666671,13.35 C36.6666681,13.3833335 36.8999991,13.433333 37.1666671,13.5 C37.0333331,13.366666 36.9166676,13.233334 36.8166671,13.1 C36.7166666,12.966666 36.6000011,12.800001 36.4666671,12.6 C36.4666671,12.333332 36.5333331,12.166667 36.6666671,12.1 C36.8000011,12.033333 36.9000001,11.933334 36.9666671,11.8 C37.1666681,11.866667 37.2833336,11.9833325 37.3166671,12.15 C37.3500006,12.3166675 37.4333331,12.466666 37.5666671,12.6 C37.8333351,12.6 38.0000001,12.6833325 38.0666671,12.85 C38.1333341,13.0166675 38.2666661,13.199999 38.4666671,13.4 C38.8000021,13.199999 38.9666671,13 38.9666671,12.8 C39.2333351,12.8 39.4000001,12.733334 39.4666671,12.6 L39.3666671,12.6 C39.6333351,12.466666 39.8166666,12.2500015 39.9166671,11.95 C40.0166676,11.6499985 40.0666671,11.333335 40.0666671,11 C40.2000011,11 40.2666671,11.033333 40.2666671,11.1 C40.2666671,11.166667 40.3000001,11.2 40.3666671,11.2 C40.5666681,10.866665 40.7499996,10.5166685 40.9166671,10.15 C41.0833346,9.7833315 41.2666661,9.433335 41.4666671,9.1 C41.4666671,8.366663 41.5666661,7.7166695 41.7666671,7.15 C41.9666671,6.5833305 41.9333351,5.96667 41.6666671,5.3 L41.6666671,5.2 L41.9666671,5.2 C42.1000011,5 42.1333341,4.833334 42.0666671,4.7 C42.0000001,4.566666 42.0333331,4.433334 42.1666671,4.3 C42.3000011,4.3 42.3666671,4.333333 42.3666671,4.4 L42.5666671,4.4 C42.5666671,4.933336 42.5000011,5.233333 42.3666671,5.3 C42.5000011,5.433334 42.5333341,5.533333 42.4666671,5.6 C42.4000001,5.666667 42.4333331,5.7 42.5666671,5.7 L42.5666671,6 L42.8666671,5.7 C43.0000011,5.166664 43.1666661,4.733335 43.3666671,4.4 C43.5666681,4.066665 43.7666661,3.666669 43.9666671,3.2 C43.4999981,3.2 43.0500026,3.233333 42.6166671,3.3 C42.1833316,3.366667 41.7333361,3.4 41.2666671,3.4 C41.4666671,3.199999 41.6666661,3.1166665 41.8666671,3.15 C42.0666681,3.1833335 42.2333331,3.133334 42.3666671,3 L42.4666671,2.8 L42.3666671,2.8 C42.5666681,2.8 42.6666671,2.700001 42.6666671,2.5 C43.0000021,2.633334 43.2499996,2.633334 43.4166671,2.5 C43.5833346,2.366666 43.7666661,2.366666 43.9666671,2.5 C44.1000011,2.633334 44.1000011,2.7 43.9666671,2.7 L43.7666671,2.7 C43.8333341,2.766667 43.9000001,2.8 43.9666671,2.8 L44.1666671,2.8 C44.1666671,2.533332 44.2166666,2.333334 44.3166671,2.2 C44.4166676,2.066666 44.5333331,1.866668 44.6666671,1.6 L44.6666671,1.7 L44.6666671,1.6 C44.9333351,1.399999 45.1333331,1.1500015 45.2666671,0.85 C45.4000011,0.5499985 45.5666661,0.266668 45.7666671,0 C45.9000011,0.133334 45.9666671,0.166667 45.9666671,0.1 C45.9666671,0.033333 46.0000001,0 46.0666671,0 C46.0000001,0.333335 45.9000011,0.633332 45.7666671,0.9 C45.6333331,1.166668 45.5000011,1.466665 45.3666671,1.8 L45.3666671,2.1 C45.3666671,2.233334 45.4333331,2.3 45.5666671,2.3 C45.5666671,2.5 45.5333341,2.6166665 45.4666671,2.65 C45.4000001,2.6833335 45.3666671,2.733333 45.3666671,2.8 C45.5000011,2.933334 45.6333331,2.9833335 45.7666671,2.95 C45.9000011,2.9166665 45.9666671,3 45.9666671,3.2 C45.8333331,3.2 45.7166676,3.233333 45.6166671,3.3 C45.5166666,3.366667 45.3666681,3.4 45.1666671,3.4 C45.1666671,3.533334 45.1500006,3.6499995 45.1166671,3.75 C45.0833336,3.8500005 45.0666671,3.966666 45.0666671,4.1 C45.0666671,4.233334 45.0833336,4.266667 45.1166671,4.2 C45.1500006,4.133333 45.1666671,4.166666 45.1666671,4.3 C45.1666671,4.433334 45.0833346,4.566666 44.9166671,4.7 C44.7499996,4.833334 44.6000011,5 44.4666671,5.2 C43.9999981,5.466668 43.7666671,6.166661 43.7666671,7.3 C43.4999991,7.033332 43.4333331,6.733335 43.5666671,6.4 C43.4333331,6.733335 43.3333341,6.9 43.2666671,6.9 C43.2666671,7.033334 43.3333331,7.1 43.4666671,7.1 C43.3333331,7.300001 43.2666671,7.466666 43.2666671,7.6 C43.2666671,7.666667 43.2000011,7.799999 43.0666671,8 L42.9666671,8 C42.9000001,8 42.8666671,8.066666 42.8666671,8.2 C42.3333311,9.200005 42.1666661,10.399993 42.3666671,11.8 C42.3666671,11.866667 42.4333331,11.966666 42.5666671,12.1 C42.4333331,12.433335 42.4333331,12.766665 42.5666671,13.1 C42.7000011,13.433335 42.6333351,13.699999 42.3666671,13.9 C42.3666671,14.100001 42.4166666,14.2833325 42.5166671,14.45 C42.6166676,14.6166675 42.6333341,14.833332 42.5666671,15.1 C42.3666661,15.033333 42.2666671,14.866668 42.2666671,14.6 C42.2666671,14.266665 42.1333351,14.033334 41.8666671,13.9 C42.0000011,13.5 42.0000011,13.033336 41.8666671,12.5 C41.7333331,12.566667 41.6666671,12.666666 41.6666671,12.8 C41.6666671,12.933334 41.6000011,13 41.4666671,13 C41.3333331,13.333335 41.1666681,13.5 40.9666671,13.5 L40.9666671,13.2 C40.9666671,13.333334 40.9333341,13.4 40.8666671,13.4 L40.7666671,13.4 C40.9000011,13.733335 41.0333331,14.133331 41.1666671,14.6 C41.3000011,15.066669 41.6333311,15.3 42.1666671,15.3 C42.0333331,15.433334 41.9500006,15.466667 41.9166671,15.4 C41.8833336,15.333333 41.8000011,15.3 41.6666671,15.3 C41.8000011,15.633335 42.0166656,15.9166655 42.3166671,16.15 C42.6166686,16.3833345 42.8666661,16.633332 43.0666671,16.9 L43.9666671,16.9 C44.3000021,16.9 44.5999991,16.966666 44.8666671,17.1 C45.2000021,17.300001 45.6666641,17.466666 46.2666671,17.6 L46.6666671,17.6 C46.8000011,17.733334 46.9666671,17.8 47.1666671,17.8 C47.1666671,18.333336 47.3333321,18.533334 47.6666671,18.4 L47.6666671,18.5 C47.6666671,18.433333 47.7333331,18.333334 47.8666671,18.2 C48.0000011,18.2 48.0333341,18.2499995 47.9666671,18.35 C47.9000001,18.4500005 47.9333331,18.5 48.0666671,18.5 C48.2000011,18.700001 48.3000001,18.8166665 48.3666671,18.85 C48.4333341,18.8833335 48.5000001,18.966666 48.5666671,19.1 L48.5666671,19.2 C48.4333331,19.333334 48.3166676,19.3500005 48.2166671,19.25 C48.1166666,19.1499995 48.0000011,19.133333 47.8666671,19.2 C47.5333321,19.333334 47.3666671,19.633331 47.3666671,20.1 L47.3666671,21.4 L47.4666671,21.4 C47.5333341,21.4 47.5666671,21.466666 47.5666671,21.6 C47.5666671,21.666667 47.5333341,21.733333 47.4666671,21.8 C47.4000001,21.866667 47.3666671,21.966666 47.3666671,22.1 C47.6333351,21.833332 47.8833326,21.733333 48.1166671,21.8 C48.1228814,21.8017755 48.1289657,21.8033619 48.1349199,21.8047591 L48.1349199,21.8047591 Z M47.2783497,24.5125196 C47.261118,24.470722 47.2629479,24.4193937 47.2838392,24.3585345 C47.2247772,24.4238606 47.2328784,24.4662113 47.2666671,24.5 C47.2709798,24.5043127 47.274874,24.5084859 47.2783497,24.5125196 L47.2783497,24.5125196 Z M42.9965791,28.8401759 C42.9917404,28.8284946 42.9817698,28.8151027 42.9666671,28.8 C42.9000001,28.733333 42.9333331,28.7 43.0666671,28.7 L42.9965791,28.8401759 L42.9965791,28.8401759 Z M40.2674109,24.0669894 C40.2726647,23.9556626 40.3057498,23.9 40.3666671,23.9 C40.5000011,23.9 40.5666671,23.966666 40.5666671,24.1 L40.3666671,24.1 C40.3666671,24.433335 40.4000001,24.6833325 40.4666671,24.85 C40.5333341,25.0166675 40.6333331,25.166666 40.7666671,25.3 L40.9666671,25.3 C41.0333341,25.3 41.0500006,25.266667 41.0166671,25.2 C40.9833336,25.133333 41.0000001,25.1 41.0666671,25.1 C41.2666681,25.233334 41.4000001,25.3833325 41.4666671,25.55 C41.5333341,25.7166675 41.6999991,25.866666 41.9666671,26 C42.6333371,25.399997 43.1666651,25 43.5666671,24.8 C43.7000011,24.466665 43.8499996,24.2166675 44.0166671,24.05 C44.1833346,23.8833325 44.3333331,23.700001 44.4666671,23.5 L44.8666671,23.5 C45.0000011,23.366666 45.1333331,23.2166675 45.2666671,23.05 C45.4000011,22.8833325 45.5666671,22.733334 45.7666671,22.6 C46.1000021,21.466661 46.2666671,20.23334 46.2666671,18.9 C45.7999981,18.9 45.2666701,18.866667 44.6666671,18.8 C44.0666671,18.733333 43.6000021,18.766666 43.2666671,18.9 C43.0666671,18.699999 42.8333351,18.6 42.5666671,18.6 C42.3666661,18.6 42.1666681,18.533334 41.9666671,18.4 C42.1000011,18.266666 42.2333331,18.2166665 42.3666671,18.25 C42.5000011,18.2833335 42.5666671,18.133335 42.5666671,17.8 C42.4333331,17.8 42.4000001,17.833333 42.4666671,17.9 C42.5333341,17.966667 42.5000011,18 42.3666671,18 C41.8999981,17.733332 41.5333351,17.4166685 41.2666671,17.05 C40.9999991,16.6833315 40.7000021,16.333335 40.3666671,16 C40.0999991,15.933333 39.9000011,15.833334 39.7666671,15.7 C39.6333331,15.566666 39.4333351,15.433334 39.1666671,15.3 C39.1666671,15.099999 38.9666691,15 38.5666671,15 C38.5666671,15.066667 38.5500006,15.1499995 38.5166671,15.25 C38.4833336,15.3500005 38.4666671,15.5 38.4666671,15.7 L38.5666671,15.9 C38.5000001,16.233335 38.3666681,16.4833325 38.1666671,16.65 C37.9666661,16.8166675 37.8666671,17.099998 37.8666671,17.5 C37.7333331,17.566667 37.6500006,17.6833325 37.6166671,17.85 C37.5833336,18.0166675 37.5000011,18.199999 37.3666671,18.4 C37.2333331,18.666668 37.1666671,18.933332 37.1666671,19.2 C37.1666671,19.400001 37.1000011,19.666665 36.9666671,20 C36.9000001,20.133334 36.8666671,20.299999 36.8666671,20.5 C36.8666671,20.700001 36.8000011,20.866666 36.6666671,21 C36.6666671,21.333335 36.6000011,21.6166655 36.4666671,21.85 C36.3333331,22.0833345 36.2000011,22.299999 36.0666671,22.5 C36.2000011,22.633334 36.3499996,22.766666 36.5166671,22.9 C36.6833346,23.033334 36.8333331,23.166666 36.9666671,23.3 C36.9666671,23.033332 36.9166676,22.7833345 36.8166671,22.55 C36.7166666,22.3166655 36.7333331,22.100001 36.8666671,21.9 C36.9333341,22.233335 37.0000001,22.4833325 37.0666671,22.65 C37.1333341,22.8166675 37.2333331,23.033332 37.3666671,23.3 L37.7666671,23.3 C38.0333351,23.5 38.3666651,23.5833335 38.7666671,23.55 C39.1666691,23.5166665 39.5333321,23.566666 39.8666671,23.7 L39.8666671,23.6 C39.9333341,23.6 40.0000001,23.633333 40.0666671,23.7 C40.1980845,23.7 40.2647368,23.8295265 40.2666258,24.0885832 L40.2674109,24.0669894 Z M42.5666671,26.7 C42.7666681,26.499999 42.8666671,26.200002 42.8666671,25.8 C42.6666661,25.8 42.4333351,25.933332 42.1666671,26.2 C42.5000021,26.466668 42.6333341,26.633333 42.5666671,26.7 Z M42.6666671,35.3 C42.8000011,35.033332 42.8166676,34.766668 42.7166671,34.5 C42.6166666,34.233332 42.4333351,34.133333 42.1666671,34.2 C42.3666681,34.400001 42.5333331,34.766664 42.6666671,35.3 Z M41.6666671,33.7 C41.8000011,33.566666 41.8666671,33.333335 41.8666671,33 L41.6666671,33 C41.6666671,33.133334 41.6333341,33.2166665 41.5666671,33.25 C41.5000001,33.2833335 41.4666671,33.366666 41.4666671,33.5 C41.6000011,33.5 41.6666671,33.533333 41.6666671,33.6 L41.6666671,33.7 Z M39.8666671,26.9 C39.7333331,26.766666 39.6333341,26.633334 39.5666671,26.5 C39.5000001,26.366666 39.4666671,26.133335 39.4666671,25.8 C39.1999991,25.8 38.9500016,25.7500005 38.7166671,25.65 C38.4833326,25.5499995 38.2666681,25.433334 38.0666671,25.3 C38.2000011,25.566668 38.2666671,25.8 38.2666671,26 C38.5333351,26.200001 38.7499996,26.399999 38.9166671,26.6 C39.0833346,26.8 39.3999981,26.9 39.8666671,26.9 Z M37.5666671,13.5 L37.8666671,13.5 C37.7333331,13.233332 37.6000011,13.000001 37.4666671,12.8 C37.3333331,12.599999 37.1333351,12.433334 36.8666671,12.3 L36.7666671,12.4 C36.7000001,12.466667 36.6666671,12.533333 36.6666671,12.6 C36.7333341,12.733334 36.8333331,12.866666 36.9666671,13 C37.2333351,13.266668 37.4333331,13.433333 37.5666671,13.5 Z M17.1666671,49.9 C17.3000011,50.166668 17.2666681,50.399999 17.0666671,50.6 C16.9333331,50.533333 16.9166666,50.466667 17.0166671,50.4 C17.1166676,50.333333 17.1333341,50.233334 17.0666671,50.1 C17.0666671,49.966666 17,49.8833335 16.8666671,49.85 C16.7333331,49.8166665 16.6000011,49.733334 16.4666671,49.6 C16.3333331,49.733334 16.2833336,49.8166665 16.3166671,49.85 C16.3500006,49.8833335 16.3000011,49.9 16.1666671,49.9 C16.2333341,49.566665 16.2166676,49.266668 16.1166671,49 C16.0166666,48.733332 15.9000011,48.433335 15.7666671,48.1 C15.6333331,47.966666 15.6000001,47.8500005 15.6666671,47.75 C15.7333341,47.6499995 15.7666671,47.533334 15.7666671,47.4 C15.6333331,46.933331 15.4666681,46.5500015 15.2666671,46.25 C15.0666661,45.9499985 14.8666681,45.633335 14.6666671,45.3 C14.5333331,45.166666 14.3000021,45.1 13.9666671,45.1 C13.6999991,45.1 13.4000021,45.033334 13.0666671,44.9 L13.0666671,44.6 L12.9666671,44.8 C13.0333341,44.8 13.0666671,44.833333 13.0666671,44.9 C12.7999991,45.033334 12.6000011,45.166666 12.4666671,45.3 C12.3333331,45.433334 12.1333351,45.533333 11.8666671,45.6 C11.6666661,46 11.4333351,46.3166655 11.1666671,46.55 C10.8999991,46.7833345 10.7000011,47.133331 10.5666671,47.6 C10.5666671,47.733334 10.6000001,47.8 10.6666671,47.8 C10.7333341,47.8 10.7000011,47.866666 10.5666671,48 C10.2999991,48 10.0666681,48.233331 9.86666709,48.7 C9.73333309,48.7 9.58333459,48.7166665 9.41666709,48.75 C9.24999959,48.7833335 9.10000109,48.700001 8.96666709,48.5 C8.83333309,48.700001 8.73333409,48.866666 8.66666709,49 C8.60000009,49.133334 8.40000209,49.133334 8.06666709,49 C8,49.200001 7.90000109,49.3499995 7.76666709,49.45 C7.63333309,49.5500005 7.5,49.666666 7.36666709,49.8 C7.36666709,50.333336 7.43333309,50.666666 7.56666709,50.8 C7.23333209,51.133335 7.03333409,51.533331 6.96666709,52 C6.90000009,52.466669 6.70000209,52.799999 6.36666709,53 C6.36666709,52.666665 6.41666659,52.466667 6.51666709,52.4 C6.61666759,52.333333 6.66666709,52.233334 6.66666709,52.1 C6.33333209,52.366668 6.18333359,52.799997 6.21666709,53.4 C6.25000059,54 6.16666809,54.433332 5.96666709,54.7 C5.76666609,54.633333 5.71666659,54.566667 5.81666709,54.5 C5.91666759,54.433333 5.96666709,54.333334 5.96666709,54.2 L5.96666709,53.7 C5.96666709,53.03333 6.13333209,52.433336 6.46666709,51.9 C6.60000109,51.9 6.66666709,51.966666 6.66666709,52.1 C6.66666709,51.766665 6.73333309,51.5166675 6.86666709,51.35 C7,51.1833325 7.10000009,51 7.16666709,50.8 C7.10000009,50.666666 7.06666709,50.433335 7.06666709,50.1 C6.93333309,49.966666 6.86666709,49.933333 6.86666709,50 C6.86666709,50.066667 6.80000109,50.033334 6.66666709,49.9 L6.66666709,49.8 C7.13333609,49.199997 7.73333009,48.700002 8.46666709,48.3 C8.33333309,48.166666 8.26666709,48.066667 8.26666709,48 C7.93333209,48 7.73333409,47.8833345 7.66666709,47.65 C7.60000009,47.4166655 7.40000209,47.3 7.06666709,47.3 C6.73333209,46.966665 6.30000309,46.8 5.76666709,46.8 C5.16666409,46.8 4.63333609,46.700001 4.16666709,46.5 C4.16666709,46.633334 4.20000009,46.733333 4.26666709,46.8 C4.33333409,46.866667 4.36666709,46.966666 4.36666709,47.1 C4.36666709,47.233334 4.33333409,47.3 4.26666709,47.3 L4.16666709,47.3 C4.03333309,47.166666 3.95000059,47.0500005 3.91666709,46.95 C3.88333359,46.8499995 3.80000109,46.700001 3.66666709,46.5 L3.06666709,46.5 C2.79999909,46.5 2.56666809,46.466667 2.36666709,46.4 C2.5,46.4 2.56666709,46.366667 2.56666709,46.3 L2.56666709,46.2 C2.43333309,46 2.28333459,45.833334 2.11666709,45.7 C1.94999959,45.566666 1.86666709,45.366668 1.86666709,45.1 C2,45.1 2.03333409,45.066667 1.96666709,45 C1.90000009,44.933333 1.93333309,44.9 2.06666709,44.9 C2.06666709,44.766666 2.03333409,44.5166685 1.96666709,44.15 C1.90000009,43.7833315 1.93333309,43.466668 2.06666709,43.2 L1.66666709,42.8 L1.31666709,42.1 C1.21666659,41.899999 1.16666709,41.666668 1.16666709,41.4 C0.966666095,41.266666 0.866667095,41.266666 0.866667095,41.4 C0.866667095,41.466667 0.900000095,41.5 0.966667095,41.5 L0.766667095,41.5 C0.766667095,41.433333 0.700001095,41.4 0.566667095,41.4 C0.566667095,41.266666 0.600000095,41.2 0.666667095,41.2 C0.733334095,41.2 0.766667095,41.133334 0.766667095,41 C0.633333095,41 0.566667095,41.033333 0.566667095,41.1 C0.566667095,41.166667 0.533334095,41.2 0.466667095,41.2 C0.333333095,41.2 0.266667095,41.166667 0.266667095,41.1 L0.266667095,41 C0.266667095,40.866666 0.233334095,40.7833335 0.166667095,40.75 C0.100000095,40.7166665 0.133333095,40.633334 0.266667095,40.5 L0.166667095,40.5 C0.100000095,40.5 0.0666670947,40.433334 0.0666670947,40.3 C0.0666670947,40.099999 0.100000095,39.9500005 0.166667095,39.85 L0.466667095,39.4 C0.466667095,39.266666 0.333335095,39.2 0.0666670947,39.2 C-0.0666669053,39.066666 -2.66453526e-14,39 0.266667095,39 C0.466668095,39 0.533334095,38.733336 0.466667095,38.2 L0.566667095,38.3 C0.700001095,38.233333 0.800000095,38.133334 0.866667095,38 C0.933334095,37.866666 1.03333309,37.733334 1.16666709,37.6 C1.43333509,37.733334 1.56666709,37.733334 1.56666709,37.6 C1.56666709,37.399999 1.66666609,37.233334 1.86666709,37.1 L1.46666709,37.1 C1.60000109,36.766665 1.76666609,36.466668 1.96666709,36.2 C2.16666809,35.933332 2.30000009,35.633335 2.36666709,35.3 C2.56666809,35.166666 2.70000009,35.0500005 2.76666709,34.95 C2.83333409,34.8499995 2.93333309,34.733334 3.06666709,34.6 C2.93333309,34.933335 2.76666809,35.2499985 2.56666709,35.55 C2.36666609,35.8500015 2.20000109,36.199998 2.06666709,36.6 C2.60000309,35.733329 3.23333009,34.833338 3.96666709,33.9 L4.56666709,32.4 C4.43333309,32.333333 4.40000009,32.233334 4.46666709,32.1 C4.53333409,31.966666 4.5,31.833334 4.36666709,31.7 C4.36666709,31.833334 4.30000109,31.9 4.16666709,31.9 C4.03333309,31.9 3.96666709,31.833334 3.96666709,31.7 C3.96666709,31.633333 4,31.6 4.06666709,31.6 C4.13333409,31.6 4.16666709,31.533334 4.16666709,31.4 L4.06666709,31.4 C4,31.4 3.96666709,31.333334 3.96666709,31.2 C3.96666709,30.866665 4.08333259,30.666667 4.31666709,30.6 C4.55000159,30.533333 4.66666709,30.300002 4.66666709,29.9 C5.06666909,29.566665 5.43333209,29.100003 5.76666709,28.5 C6.43333709,27.966664 6.88333259,27.233338 7.11666709,26.3 C7.35000159,25.366662 7.86666309,24.666669 8.66666709,24.2 C8.66666709,24.066666 8.70000009,23.933334 8.76666709,23.8 C8.83333409,23.666666 8.90000009,23.5 8.96666709,23.3 L8.86666709,23.4 L8.86666709,23.3 C8.86666709,23.233333 8.96666609,23.2 9.16666709,23.2 C9.16666709,23.466668 9.11666759,23.699999 9.01666709,23.9 C8.91666659,24.100001 8.80000109,24.266666 8.66666709,24.4 C8.66666709,24.533334 8.71666659,24.566667 8.81666709,24.5 C8.91666759,24.433333 8.96666709,24.466666 8.96666709,24.6 C9.30000209,24.266665 9.68333159,23.866669 10.1166671,23.4 C10.5500026,22.933331 10.7000011,22.333337 10.5666671,21.6 C10.5666671,21.399999 10.6333331,21.233334 10.7666671,21.1 L11.1666671,20.7 C11.3000011,20.566666 11.3000011,20.433334 11.1666671,20.3 C11.4333351,20.166666 11.6666661,20.066667 11.8666671,20 C12.0666681,19.933333 12.2333331,19.800001 12.3666671,19.6 C12.9000031,19.466666 13.2833326,19.2166685 13.5166671,18.85 C13.7500016,18.4833315 14.0333321,18.133335 14.3666671,17.8 C14.3666671,18 14.2833346,18.1833325 14.1166671,18.35 C13.9499996,18.5166675 13.8000011,18.699999 13.6666671,18.9 C13.8000011,18.9 13.9499996,18.833334 14.1166671,18.7 C14.2833346,18.566666 14.4333331,18.466667 14.5666671,18.4 C14.4333331,18 14.4833326,17.6500015 14.7166671,17.35 C14.9500016,17.0499985 15.1333331,16.733335 15.2666671,16.4 C15.1333331,16.266666 15,16.133334 14.8666671,16 C14.7333331,15.866666 14.7333331,15.700001 14.8666671,15.5 C14.8666671,15.766668 15.0666651,16 15.4666671,16.2 C15.4666671,16.666669 15.3666681,17.0166655 15.1666671,17.25 C14.9666661,17.4833345 14.8000011,17.733332 14.6666671,18 C14.6666671,18.133334 14.7333331,18.2 14.8666671,18.2 L15.0666671,18.2 C14.9333331,18.333334 14.7666681,18.466666 14.5666671,18.6 C14.3666661,18.733334 14.1666681,18.899999 13.9666671,19.1 C13.8333331,19.166667 13.7000011,19.266666 13.5666671,19.4 C13.4333331,19.533334 13.2666681,19.666666 13.0666671,19.8 C12.7999991,19.933334 12.5666681,20.066666 12.3666671,20.2 C12.1666661,20.333334 12,20.5 11.8666671,20.7 C12,21.166669 12.0666671,21.73333 12.0666671,22.4 C12.0666671,23.06667 12,23.633331 11.8666671,24.1 L11.7666671,24.15 C11.8333341,24.1166665 11.8666671,24.133333 11.8666671,24.2 C11.7333331,24.533335 11.6166676,24.7833325 11.5166671,24.95 C11.4166666,25.1166675 11.3666671,25.366665 11.3666671,25.7 C11.2333331,25.7 11.1666671,25.733333 11.1666671,25.8 L10.9666671,25.8 L10.9666671,25.5 C10.7666661,25.633334 10.6500006,25.766666 10.6166671,25.9 C10.5833336,26.033334 10.5333341,26.199999 10.4666671,26.4 L10.3666671,26.4 C10.3000001,26.4 10.2666671,26.333334 10.2666671,26.2 C10.1333331,26.2 10.1000001,26.166667 10.1666671,26.1 C10.2333341,26.033333 10.2000011,25.933334 10.0666671,25.8 C9.93333309,25.8 9.90000009,25.833333 9.96666709,25.9 C10.0333341,25.966667 10,26.066666 9.86666709,26.2 C9.73333309,26.333334 9.60000109,26.4499995 9.46666709,26.55 C9.33333309,26.6500005 9.16666809,26.766666 8.96666709,26.9 C8.90000009,26.9 8.80000109,26.933333 8.66666709,27 C8.53333309,27.066667 8.40000109,27.1 8.26666709,27.1 C8.26666709,27.233334 8.16666809,27.399999 7.96666709,27.6 C7.96666709,27.666667 7.90000109,27.766666 7.76666709,27.9 C7.70000009,27.966667 7.63333409,28 7.56666709,28 C7.29999909,28.333335 7.10000109,28.699998 6.96666709,29.1 C6.83333309,29.5 6.63333509,29.766666 6.36666709,29.9 C6.36666709,30.300002 6.30000109,30.633332 6.16666709,30.9 L5.76666709,31.7 C6.03333509,31.7 6.16666709,31.600001 6.16666709,31.4 C6.23333409,31.4 6.26666709,31.433333 6.26666709,31.5 C6.26666709,31.566667 6.23333409,31.633333 6.16666709,31.7 C6.16666709,31.833334 6.20000009,31.866667 6.26666709,31.8 C6.33333409,31.733333 6.36666709,31.766666 6.36666709,31.9 C6.36666709,32.100001 6.33333409,32.2166665 6.26666709,32.25 L5.96666709,32.4 C5.96666709,32.533334 6,32.566667 6.06666709,32.5 C6.13333409,32.433333 6.16666709,32.466666 6.16666709,32.6 C6.03333309,32.933335 5.95000059,33.1833325 5.91666709,33.35 C5.88333359,33.5166675 5.76666809,33.766665 5.56666709,34.1 C5.70000109,34.166667 5.91666559,34.1833335 6.21666709,34.15 C6.51666859,34.1166665 6.73333309,34.033334 6.86666709,33.9 C7.46667009,33.9 7.86666609,33.833334 8.06666709,33.7 C8.26666809,33.7 8.46666609,33.633334 8.66666709,33.5 C8.86666809,33.366666 9.03333309,33.3 9.16666709,33.3 L9.56666709,33.3 C9.70000109,33.3 9.83333309,33.2166675 9.96666709,33.05 C10.1000011,32.8833325 10.2999991,32.8 10.5666671,32.8 C10.5666671,33 10.5500006,33.1166665 10.5166671,33.15 C10.4833336,33.1833335 10.4666671,33.233333 10.4666671,33.3 L10.4666671,33.7 L10.7666671,33.7 C10.7666671,33.900001 10.8333331,34.0499995 10.9666671,34.15 C11.1000011,34.2500005 11.1666671,34.399999 11.1666671,34.6 L11.1666671,34.1 C11.3000011,34.1 11.3666671,34.133333 11.3666671,34.2 L11.4666671,34.2 C11.4666671,34.533335 11.4500006,34.7833325 11.4166671,34.95 C11.3833336,35.1166675 11.4000001,35.299999 11.4666671,35.5 C11.4666671,35.766668 11.5333331,35.966666 11.6666671,36.1 C11.8000011,36.233334 11.8666671,36.433332 11.8666671,36.7 L11.6666671,36.7 C11.8000011,36.7 11.9166666,36.766666 12.0166671,36.9 C12.1166676,37.033334 12.1333341,37.166666 12.0666671,37.3 L13.4666671,37.3 C13.9333361,37.3 14.3999981,37.333333 14.8666671,37.4 C14.8666671,37.533334 14.9333331,37.666666 15.0666671,37.8 C15.0666671,37.466665 15.1333331,37.3 15.2666671,37.3 L15.3666671,37.3 C15.4333341,37.3 15.4666671,37.333333 15.4666671,37.4 C15.4666671,37.333333 15.5,37.333333 15.5666671,37.4 C15.5666671,37.600001 15.5333341,37.7 15.4666671,37.7 L15.5666671,38 C15.7000011,37.799999 15.8166666,37.600001 15.9166671,37.4 C16.0166676,37.199999 16.1333331,37.033334 16.2666671,36.9 L16.4666671,36.9 L16.4666671,37.1 C16.3333331,37.233334 16.2166676,37.366666 16.1166671,37.5 C16.0166666,37.633334 15.9666671,37.866665 15.9666671,38.2 C16.1666681,38.266667 16.5333311,38.3 17.0666671,38.3 C17.0666671,38.633335 16.8833356,38.8499995 16.5166671,38.95 C16.1499986,39.0500005 15.9000011,39.199999 15.7666671,39.4 C15.6333331,39.600001 15.5500006,39.7833325 15.5166671,39.95 C15.4833336,40.1166675 15.4000011,40.299999 15.2666671,40.5 C15.0666661,40.633334 14.9000011,40.8166655 14.7666671,41.05 C14.6333331,41.2833345 14.5,41.433333 14.3666671,41.5 C14.3666671,41.633334 14.3333341,41.7166665 14.2666671,41.75 C14.2000001,41.7833335 14.1666671,41.899999 14.1666671,42.1 C13.9666661,42.233334 13.9000001,42.4166655 13.9666671,42.65 C14.0333341,42.8833345 13.9666681,43.066666 13.7666671,43.2 C13.9000011,43.266667 13.9666671,43.366666 13.9666671,43.5 L13.9666671,43.9 C14.1000011,43.966667 14.2333331,44 14.3666671,44 C14.5,44 14.6000001,44.066666 14.6666671,44.2 L14.6666671,44.4 L14.5666671,44.4 C14.6333341,44.600001 14.7833326,44.733333 15.0166671,44.8 C15.2500016,44.866667 15.4333331,44.966666 15.5666671,45.1 C15.5666671,45.233334 15.5333341,45.3 15.4666671,45.3 L15.2666671,45.3 C15.4000011,45.633335 15.5166666,45.9166655 15.6166671,46.15 C15.7166676,46.3833345 15.8333331,46.633332 15.9666671,46.9 C15.8333331,47.366669 15.8333331,47.7833315 15.9666671,48.15 C16.1000011,48.5166685 16.2000001,48.866665 16.2666671,49.2 C16.6000021,49.333334 16.8166666,49.466666 16.9166671,49.6 C17.0166676,49.733334 17.1000001,49.833333 17.1666671,49.9 Z M14.1666671,41.4 C14.3666681,41.199999 14.5333331,41.000001 14.6666671,40.8 C14.8000011,40.599999 14.9333331,40.433334 15.0666671,40.3 C14.6666651,40.500001 14.3666681,40.866664 14.1666671,41.4 Z M14.1666671,38.7 C14.0333331,38.7 13.9333341,38.666667 13.8666671,38.6 L13.7666671,38.5 L13.0666671,38.5 C12.7999991,38.5 12.5666681,38.433334 12.3666671,38.3 C12.2333331,38.433334 12.0333351,38.4833335 11.7666671,38.45 C11.4999991,38.4166665 11.3666671,38.333334 11.3666671,38.2 C11.1666661,38.333334 11.0166676,38.2833345 10.9166671,38.05 C10.8166666,37.8166655 10.7666671,37.600001 10.7666671,37.4 C10.2999981,37.266666 10.0000011,37.033335 9.86666709,36.7 C10.0666681,36.366665 10.0666681,36.100001 9.86666709,35.9 C9.66666609,35.699999 9.56666709,35.433335 9.56666709,35.1 C9.29999909,35.1 9.10000109,35.033334 8.96666709,34.9 L6.86666709,34.9 C6.66666609,35.033334 6.38333559,35.0833335 6.01666709,35.05 C5.64999859,35.0166665 5.40000109,35.099999 5.26666709,35.3 C5.13333309,35.500001 5.06666709,35.699999 5.06666709,35.9 C5.06666709,36.100001 5.00000109,36.266666 4.86666709,36.4 C4.80000009,36.4 4.70000109,36.266668 4.56666709,36 L4.16666709,37 C4.03333309,37.333335 3.96666709,37.666665 3.96666709,38 C3.83333309,38.133334 3.78333359,38.3166655 3.81666709,38.55 C3.85000059,38.7833345 3.80000109,38.9 3.66666709,38.9 C3.66666709,38.966667 3.63333409,39.0166665 3.56666709,39.05 C3.50000009,39.0833335 3.46666709,39.199999 3.46666709,39.4 C3.66666809,39.733335 3.88333259,40.0166655 4.11666709,40.25 L4.86666709,41 C5.00000109,41.266668 5.06666709,41.533332 5.06666709,41.8 L5.06666709,42.6 C5.06666709,42.733334 5.03333409,42.8 4.96666709,42.8 L4.86666709,42.8 C4.86666709,43.133335 4.90000009,43.433332 4.96666709,43.7 C5.03333409,43.966668 5.06666709,44.266665 5.06666709,44.6 C5.40000209,44.6 5.56666709,44.666666 5.56666709,44.8 L5.26666709,44.8 C5.13333309,44.8 5.00000109,44.733334 4.86666709,44.6 L4.86666709,44.9 C5.20000209,45.233335 5.53333209,45.300001 5.86666709,45.1 C6.20000209,44.9 6.53333209,44.8 6.86666709,44.8 C6.86666709,44.866667 6.90000009,44.9 6.96666709,44.9 C7.03333409,44.9 7.00000109,44.966666 6.86666709,45.1 C7.06666809,45.1 7.23333309,45.166666 7.36666709,45.3 C7.23333309,45.433334 7.23333309,45.5499995 7.36666709,45.65 C7.50000109,45.7500005 7.63333309,45.8 7.76666709,45.8 C7.90000109,45.666666 8.01666659,45.5833335 8.11666709,45.55 C8.21666759,45.5166665 8.33333309,45.433334 8.46666709,45.3 C8.46666709,45.500001 8.33333509,45.733332 8.06666709,46 L7.96666709,46 C8.03333409,46.200001 8.14999959,46.3499995 8.31666709,46.45 C8.48333459,46.5500005 8.66666609,46.699999 8.86666709,46.9 L8.86666709,47.1 C8.86666709,46.9 8.99999909,46.733334 9.26666709,46.6 C9.53333509,46.466666 9.66666709,46.266668 9.66666709,46 L10.0166671,45.65 C10.1166676,45.5499995 10.2666661,45.433334 10.4666671,45.3 C10.5333341,44.766664 10.6999991,44.3500015 10.9666671,44.05 C11.2333351,43.7499985 11.4000001,43.26667 11.4666671,42.6 C11.6666681,42.333332 11.8499996,42.033335 12.0166671,41.7 C12.1833346,41.366665 12.3666661,41.033335 12.5666671,40.7 C12.7666681,40.499999 12.9666671,40.2833345 13.1666671,40.05 C13.3666681,39.8166655 13.5333331,39.533335 13.6666671,39.2 C13.7333341,39.066666 13.8333331,38.9833335 13.9666671,38.95 C14.1000011,38.9166665 14.1666671,38.833334 14.1666671,38.7 Z M8.86666709,24.8 L8.66666709,24.8 C8.53333309,24.933334 8.40000109,25.099999 8.26666709,25.3 C8.13333309,25.500001 8.06666709,25.666666 8.06666709,25.8 C8.20000109,25.666666 8.33333309,25.500001 8.46666709,25.3 C8.60000109,25.099999 8.73333309,24.933334 8.86666709,24.8 Z M4.56666709,44 C4.63333409,44 4.66666709,44.066666 4.66666709,44.2 C4.66666709,44.333334 4.73333309,44.4 4.86666709,44.4 C4.73333309,44.066665 4.66666709,43.700002 4.66666709,43.3 C4.66666709,42.9 4.65000059,42.500002 4.61666709,42.1 C4.58333359,41.699998 4.51666759,41.3500015 4.41666709,41.05 C4.31666659,40.7499985 4.13333509,40.566667 3.86666709,40.5 C3.73333309,40.366666 3.66666709,40.233334 3.66666709,40.1 C3.33333209,40.1 3.13333409,39.933335 3.06666709,39.6 C3.00000009,39.266665 2.96666709,38.966668 2.96666709,38.7 C3.03333409,38.499999 3.10000009,38.2833345 3.16666709,38.05 C3.23333409,37.8166655 3.26666709,37.600001 3.26666709,37.4 C3.13333309,37.866669 2.91666859,38.199999 2.61666709,38.4 C2.31666559,38.600001 2.06666809,38.866665 1.86666709,39.2 L1.86666709,40.1 C2.06666809,40.300001 2.21666659,40.5499985 2.31666709,40.85 C2.41666759,41.1500015 2.63333209,41.366666 2.96666709,41.5 L2.96666709,41.7 C3.03333409,41.7 3.06666709,41.666667 3.06666709,41.6 C3.06666709,41.533333 3.13333309,41.5 3.26666709,41.5 C3.46666809,41.700001 3.56666709,41.933332 3.56666709,42.2 C3.56666709,42.4 3.66666609,42.599999 3.86666709,42.8 L3.86666709,43.2 C3.93333409,43.333334 4.03333309,43.466666 4.16666709,43.6 C4.30000109,43.733334 4.43333309,43.866666 4.56666709,44 Z M2.80030091,45.5684336 C2.83255617,45.5774889 2.88801143,45.6213443 2.96666709,45.7 L3.06666709,45.8 C3.00000009,45.8 2.96666709,45.833333 2.96666709,45.9 C2.96666709,45.966667 2.90000109,46 2.76666709,46 C2.76666709,45.866666 2.80000009,45.766667 2.86666709,45.7 C2.91294509,45.653722 2.91103638,45.6235066 2.86094063,45.6093534 L2.80030091,45.5684336 Z" id="6-copy" fill="#FFFFFF" fill-rule="nonzero"></path>
    </g>
</svg>