<svg viewBox="0 0 239 56" version="1.1" xmlns="http://www.w3.org/2000/svg" xmlns:xlink="http://www.w3.org/1999/xlink">
    <g id="Page-1" stroke="none" stroke-width="1" fill="none" fill-rule="evenodd">
        <g id="Artboard" transform="translate(0, -1)" fill-rule="nonzero">
            <path d="M66.292,23.3512353 L66.292,27.1472353 L73.416,27.1472353 L73.416,30.8132353 L66.292,30.8132353 L66.292,37.9632353 L61.898,37.9632353 L61.898,19.5552353 L74.014,19.5552353 L74.014,23.3512353 L66.292,23.3512353 Z M91.228,37.9632353 L87.25,30.6572353 L85.742,30.6572353 L85.742,37.9632353 L81.374,37.9632353 L81.374,19.5552353 L88.394,19.5552353 C89.2780044,19.5552353 90.1403291,19.6462344 90.981,19.8282353 C91.8216709,20.0102362 92.5756633,20.3178998 93.243,20.7512353 C93.9103367,21.1845708 94.4433313,21.7565651 94.842,22.4672353 C95.2406687,23.1779055 95.44,24.0618967 95.44,25.1192353 C95.44,26.3672415 95.1020034,27.4158977 94.426,28.2652353 C93.7499966,29.1145729 92.814006,29.7212335 91.618,30.0852353 L96.428,37.9632353 L91.228,37.9632353 Z M91.046,25.1972353 C91.046,24.7638998 90.9550009,24.4129033 90.773,24.1442353 C90.5909991,23.8755673 90.3570014,23.6675694 90.071,23.5202353 C89.7849986,23.3729012 89.4643351,23.2732356 89.109,23.2212353 C88.7536649,23.169235 88.411335,23.1432353 88.082,23.1432353 L85.716,23.1432353 L85.716,27.4332353 L87.822,27.4332353 C88.1860018,27.4332353 88.5586648,27.4029023 88.94,27.3422353 C89.3213352,27.2815683 89.6679984,27.1732361 89.98,27.0172353 C90.2920016,26.8612345 90.5476657,26.6359034 90.747,26.3412353 C90.9463343,26.0465672 91.046,25.6652376 91.046,25.1972353 Z M115.592,37.9632353 L114.162,34.3492353 L107.038,34.3492353 L105.686,37.9632353 L100.85,37.9632353 L108.572,19.5552353 L112.888,19.5552353 L120.532,37.9632353 L115.592,37.9632353 Z M110.652,24.4692353 L108.312,30.7872353 L112.94,30.7872353 L110.652,24.4692353 Z M142.452,36.8452353 C141.550662,37.3132376 140.497673,37.6945672 139.293,37.9892353 C138.088327,38.2839034 136.77534,38.4312353 135.354,38.4312353 C133.880659,38.4312353 132.52434,38.1972376 131.285,37.7292353 C130.04566,37.261233 128.979671,36.6025729 128.087,35.7532353 C127.194329,34.9038977 126.496669,33.8855746 125.994,32.6982353 C125.491331,31.510896 125.24,30.1892426 125.24,28.7332353 C125.24,27.2598946 125.495664,25.9252413 126.007,24.7292353 C126.518336,23.5332293 127.224662,22.5149062 128.126,21.6742353 C129.027338,20.8335644 130.084661,20.1879042 131.298,19.7372353 C132.511339,19.2865664 133.819993,19.0612353 135.224,19.0612353 C136.680007,19.0612353 138.031994,19.2822331 139.28,19.7242353 C140.528006,20.1662375 141.541996,20.7598982 142.322,21.5052353 L139.514,24.7032353 C139.080665,24.2005661 138.50867,23.7889036 137.798,23.4682353 C137.08733,23.147567 136.281338,22.9872353 135.38,22.9872353 C134.599996,22.9872353 133.88067,23.1302339 133.222,23.4162353 C132.56333,23.7022367 131.991336,24.1008994 131.506,24.6122353 C131.020664,25.1235712 130.643668,25.7302318 130.375,26.4322353 C130.106332,27.1342388 129.972,27.9012311 129.972,28.7332353 C129.972,29.5825729 130.093332,30.3625651 130.336,31.0732353 C130.578668,31.7839055 130.938331,32.3948994 131.415,32.9062353 C131.891669,33.4175712 132.480996,33.8162339 133.183,34.1022353 C133.885004,34.3882367 134.686662,34.5312353 135.588,34.5312353 C136.108003,34.5312353 136.601998,34.4922357 137.07,34.4142353 C137.538002,34.3362349 137.971331,34.2105695 138.37,34.0372353 L138.37,30.6832353 L134.86,30.6832353 L134.86,27.0952353 L142.452,27.0952353 L142.452,36.8452353 Z M167.284,37.9632353 L167.388,24.9372353 L167.31,24.9372353 L162.526,37.9632353 L159.406,37.9632353 L154.752,24.9372353 L154.674,24.9372353 L154.778,37.9632353 L150.592,37.9632353 L150.592,19.5552353 L156.91,19.5552353 L161.096,31.3592353 L161.2,31.3592353 L165.204,19.5552353 L171.626,19.5552353 L171.626,37.9632353 L167.284,37.9632353 Z M179.922,37.9632353 L179.922,19.5552353 L192.298,19.5552353 L192.298,23.3252353 L184.212,23.3252353 L184.212,26.7832353 L191.856,26.7832353 L191.856,30.3452353 L184.212,30.3452353 L184.212,34.1672353 L192.766,34.1672353 L192.766,37.9632353 L179.922,37.9632353 Z M211.904,37.9632353 L204.494,25.9252353 L204.416,25.9252353 L204.52,37.9632353 L200.204,37.9632353 L200.204,19.5552353 L205.274,19.5552353 L212.658,31.5672353 L212.736,31.5672353 L212.632,19.5552353 L216.948,19.5552353 L216.948,37.9632353 L211.904,37.9632353 Z M233.122,23.3512353 L233.122,37.9632353 L228.676,37.9632353 L228.676,23.3512353 L223.476,23.3512353 L223.476,19.5552353 L238.322,19.5552353 L238.322,23.3512353 L233.122,23.3512353 Z" id="FRAGMENT" fill="#FFFFFF"></path>
            <g id="PoweredByContentful_DarkBackground">
                <g id="Group-2" transform="translate(0.000000, 0.963235)">
                    <path d="M16.2748858,39.1556024 L16.2748858,39.1556024 C13.4151788,36.2662245 11.8079236,32.3424159 11.8079236,28.2503615 C11.8079236,24.158307 13.4151788,20.2344984 16.2748858,17.3451206 L16.2748858,17.3451206 C18.5944655,14.9947603 18.5944655,11.1840733 16.2748858,8.83371303 C13.9553062,6.48335274 10.1945244,6.48335274 7.87494476,8.83371303 C2.84845115,14.0156678 0.022054801,20.9844969 0,28.2503615 C0.0713072416,35.5062022 2.89042715,42.4570903 7.87494476,47.6670099 C9.37544971,49.1874264 11.5624833,49.7812166 13.6122112,49.2247056 C15.6619391,48.6681945 17.2629588,47.0459294 17.8121818,44.9690018 C18.3614047,42.8920742 17.7753908,40.6760189 16.2748858,39.1556024 L16.2748858,39.1556024 Z" id="Path" fill="#FFD85F"></path>
                    <path d="M16.7972779,16.824797 L16.7972779,16.824797 C19.6972879,13.9755436 23.635535,12.3741638 27.7426471,12.3741638 C31.8497591,12.3741638 35.7880062,13.9755436 38.6880162,16.824797 L38.6880162,16.824797 C41.0470251,19.1358974 44.8717343,19.1358974 47.2307433,16.824797 C49.5897522,14.5136966 49.5897522,10.7666625 47.2307433,8.45556209 C42.0297204,3.44744294 35.035248,0.631378535 27.7426471,0.609404356 C20.4601069,0.680450932 13.4836414,3.48926548 8.25455083,8.45556209 C5.89554188,10.7666625 5.89554188,14.5136966 8.25455083,16.824797 C10.6135598,19.1358974 14.438269,19.1358974 16.7972779,16.824797 L16.7972779,16.824797 Z" id="Path" fill="#3BB4E7"></path>
                    <path d="M38.687912,39.6761848 L38.687912,39.6761848 C35.7879114,42.5254167 31.849677,44.1267845 27.7425783,44.1267845 C23.6354795,44.1267845 19.6972451,42.5254167 16.7972446,39.6761848 L16.7972446,39.6761848 C14.4382433,37.3651017 10.6135464,37.3651017 8.25454511,39.6761848 C5.89554379,41.9872678 5.89554379,45.7342738 8.25454511,48.0453568 C13.4555512,53.0534384 20.450001,55.8694816 27.7425783,55.8914556 C35.0250949,55.8204096 42.0015378,53.0116161 47.2306114,48.0453568 C48.7566177,46.5503482 49.352591,44.3713257 48.7940339,42.329106 C48.2354769,40.2868863 46.6072476,38.6917311 44.5226842,38.14452 C42.4381209,37.5973088 40.2139182,38.1811762 38.687912,39.6761848 L38.687912,39.6761848 Z" id="Path" fill="#ED5C68"></path>
                    <ellipse id="Oval" fill="#308BC5" transform="translate(12.446585, 13.250665) rotate(-45.020000) translate(-12.446585, -13.250665) " cx="12.4465854" cy="13.2506648" rx="6.15290286" ry="6.15291863"></ellipse>
                    <ellipse id="Oval" fill="#D5465F" transform="translate(12.418950, 43.660202) rotate(-45.020000) translate(-12.418950, -43.660202) " cx="12.4189498" cy="43.6602024" rx="6.15290286" ry="6.15291863"></ellipse>
                </g>
            </g>
        </g>
    </g>
</svg>