<svg viewBox="0 0 21 24" version="1.1" xmlns="http://www.w3.org/2000/svg" xmlns:xlink="http://www.w3.org/1999/xlink">
    <g id="Page-1" stroke="none" stroke-width="1" fill="none" fill-rule="evenodd">
        <g id="Artboard" transform="translate(-0, -0)" fill="#192532" fill-rule="nonzero">
            <path d="M3,19.0528571 L9,19.0528571 L9,20.5861905 L3,20.5861905 L3,19.0528571 Z M10.5,9.85285714 L3,9.85285714 L3,11.3861905 L10.5,11.3861905 L10.5,9.85285714 Z M13.5,14.4528571 L13.5,11.3861905 L9,15.9861905 L13.5,20.5861905 L13.5,17.5195238 L21,17.5195238 L21,14.4528571 L13.5,14.4528571 Z M6.75,12.9195238 L3,12.9195238 L3,14.4528571 L6.75,14.4528571 L6.75,12.9195238 Z M3,17.5195238 L6.75,17.5195238 L6.75,15.9861905 L3,15.9861905 L3,17.5195238 Z M16.5,19.0528571 L18,19.0528571 L18,22.1195238 C17.97,22.5488571 17.835,22.9168571 17.55,23.1928571 C17.265,23.4688571 16.92,23.6221905 16.5,23.6528571 L1.5,23.6528571 C0.675,23.6528571 0,22.9628571 0,22.1195238 L0,5.25285714 C0,4.40952381 0.675,3.71952381 1.5,3.71952381 L6,3.71952381 C6,2.01752381 7.335,0.652857143 9,0.652857143 C10.665,0.652857143 12,2.01752381 12,3.71952381 L16.5,3.71952381 C17.325,3.71952381 18,4.40952381 18,5.25285714 L18,12.9195238 L16.5,12.9195238 L16.5,8.31952381 L1.5,8.31952381 L1.5,22.1195238 L16.5,22.1195238 L16.5,19.0528571 Z M3,6.78619048 L15,6.78619048 C15,5.94285714 14.325,5.25285714 13.5,5.25285714 L12,5.25285714 C11.175,5.25285714 10.5,4.56285714 10.5,3.71952381 C10.5,2.87619048 9.825,2.18619048 9,2.18619048 C8.175,2.18619048 7.5,2.87619048 7.5,3.71952381 C7.5,4.56285714 6.825,5.25285714 6,5.25285714 L4.5,5.25285714 C3.675,5.25285714 3,5.94285714 3,6.78619048 Z" id="Shape"></path>
        </g>
    </g>
</svg>