<svg viewBox="0 0 356 19" version="1.1" xmlns="http://www.w3.org/2000/svg" xmlns:xlink="http://www.w3.org/1999/xlink">
    <g id="Page-1" stroke="none" stroke-width="1" fill="none" fill-rule="evenodd">
        <g id="Artboard" transform="translate(0, 0)" fill="#FFFFFF" fill-rule="nonzero">
            <rect id="Rectangle_518" x="181.764706" y="7" width="12" height="6"></rect>
            <g id="Group_210" transform="translate(0.764706, 0.000000)">
                <path d="M9.23280383,12.4573419 C9.18547596,13.2648758 9.48832541,14.0535913 10.0636897,14.6212308 C10.8219761,15.1369735 11.7319753,15.3809812 12.646083,15.3136752 C14.5272086,15.3136752 16.5479231,14.9291688 16.5479231,13.5342927 C16.5458745,13.2228862 16.4051015,12.9286646 16.1640538,12.7319893 C14.9459751,11.6200833 4.66791684,10.7828248 1.776434,8.68884615 C0.804099979,7.97007898 0.234416931,6.82820289 0.244280447,5.61778846 C0.279177654,1.74442735 4.59812243,0 13.2044383,0 C22.3674477,0 25.1193417,2.09397863 25.2589306,5.72265385 L16.373437,5.72265385 C16.3909369,4.91489356 15.9621085,4.16335825 15.2583882,3.76849573 C14.4339537,3.37611626 13.5211377,3.20736967 12.6111858,3.27912393 C10.695163,3.27912393 9.68480575,3.87169658 9.68480575,4.77720085 C9.67099988,5.09206025 9.81500854,5.39304459 10.068675,5.57950427 C11.4629015,6.69640385 21.4252231,7.46375214 24.2834706,9.55773077 C25.3735587,10.289904 26.0166741,11.5274626 25.9901101,12.8418483 C25.9901101,16.3373611 22.2278589,18.5994573 12.4383615,18.5994573 C0.731179569,18.5645021 0.166177175,15.7031752 0,12.4573419 L9.23280383,12.4573419 Z" id="Path_13"></path>
                <path d="M37.2004223,0.454416667 L48.5004702,0.454416667 L59.4681638,18.11175 L49.4692832,18.11175 L47.9022324,15.1805128 L36.788303,15.1805128 L35.1165606,18.11175 L26.2327288,18.11175 L37.2004223,0.454416667 Z M45.7701792,11.3071517 L42.4333416,5.1300812 L38.9436209,11.3071517 L45.7701792,11.3071517 Z" id="Path_14"></path>
                <polygon id="Path_15" points="61.3858484 0.454416667 74.6584193 0.454416667 81.8705087 12.2842308 81.9752003 12.2842308 81.9752003 0.454416667 89.8486749 0.454416667 89.8486749 18.11175 76.9932086 18.11175 69.2942201 5.54954274 69.2244257 5.54954274 69.2244257 18.11175 61.3509512 18.11175 61.3509512 0.454416667"></polygon>
                <path d="M110.472924,7.01432906 C110.228644,4.85044017 109.113595,3.87336111 106.640878,3.87336111 C103.122908,3.87336111 101.938064,6.35018162 101.938064,9.31637393 C101.938064,12.2476111 103.122908,14.7593868 106.640878,14.7593868 C109.392772,14.7593868 110.717204,13.7123974 110.821896,11.4436432 L120.0547,11.4436432 C120.169011,13.1616494 119.441147,14.8278357 118.10378,15.9095769 C115.699196,17.8287799 111.456693,18.6310833 106.850262,18.6310833 C96.0487453,18.6310833 92.497539,15.0024081 92.497539,9.348 C92.4958773,5.16503632 94.7957694,0.0699102564 106.8486,0.0699102564 C112.249358,0.0699102564 116.011609,0.902175214 117.892735,2.37361966 C119.252064,3.42060897 119.669169,4.50255342 119.704066,7.08423932 L110.471262,7.08423932 L110.472924,7.01432906 Z" id="Path_16"></path>
                <polygon id="Path_17" points="128.867075 4.78219444 121.794575 4.78219444 121.794575 0.454416667 144.996232 0.454416667 144.996232 4.74723932 137.958629 4.74723932 137.958629 18.11175 128.900311 18.11175 128.900311 4.78219444"></polygon>
                <path d="M147.819582,0.454416667 L156.592075,0.454416667 L156.592075,10.1203419 C156.592075,13.5059957 158.019537,14.552985 160.773093,14.552985 C163.526649,14.552985 164.954111,13.5059957 164.954111,10.1203419 L164.954111,0.454416667 L173.48897,0.454416667 L173.48897,10.7844893 C173.731718,12.7436871 172.955987,14.6909456 171.433359,15.9445321 C169.273056,17.7938248 165.510804,18.5961282 160.631842,18.5961282 C155.78944,18.5961282 152.027188,17.8287799 149.830326,15.9445321 C148.301377,14.6955834 147.524194,12.7446822 147.774714,10.7844893 L147.774714,0.454416667 L147.819582,0.454416667 Z" id="Path_18"></path>
            </g>
            <g id="Group_211" transform="translate(200.764706, 0.000000)">
                <path d="M18,7.01432906 C17.755,4.85044017 16.6366667,3.87336111 14.1566667,3.87336111 C10.6283333,3.87336111 9.44,6.35018162 9.44,9.31637393 C9.44,12.2476111 10.6283333,14.7593868 14.1566667,14.7593868 C16.9166667,14.7593868 18.245,13.7123974 18.35,11.4436432 L27.645,11.4436432 C27.7596483,13.1616494 27.0296394,14.8278357 25.6883333,15.9095769 C23.2766667,17.8287799 19.0216667,18.6310833 14.4033333,18.6310833 C3.57,18.6310833 0.00833333333,15.0024081 0.00833333333,9.348 C-1.73472348e-18,5.16503632 2.30666667,0.0699102564 14.395,0.0699102564 C19.8116667,0.0699102564 23.585,0.902175214 25.4716667,2.37361966 C26.835,3.42060897 27.2533333,4.50255342 27.2883333,7.08423932 L18,7.08423932 L18,7.01432906 Z" id="Path_19"></path>
                <path d="M56.395,15.5283996 C54.0616667,17.3776923 50.315,18.5994573 44.76,18.5994573 C34.2083333,18.5994573 30.33,14.5862756 30.33,9.31637393 C30.240344,6.2916789 31.8433062,3.46843577 34.4883333,1.99244231 C36.5483333,0.767348291 39.2033333,0 44.7583333,0 C55.31,0 59.1883333,4.01318162 59.1883333,9.28308333 C59.3021631,11.6895768 58.2655676,14.0071902 56.395,15.5283996 L56.395,15.5283996 Z M44.76,4.01318162 C43.3344821,3.88499412 41.9267033,4.40310691 40.925348,5.42447025 C39.9239927,6.44583359 39.434983,7.86240902 39.5933333,9.28308333 C39.5933333,12.1356541 41.9087674,14.4481197 44.765,14.4481197 C47.6212326,14.4481197 49.9366667,12.1356541 49.9366667,9.28308333 C50.0955908,7.86019947 49.6051006,6.4414088 48.6010082,5.41956111 C47.5969159,4.39771342 46.1857809,3.88125254 44.7583333,4.01318162 L44.76,4.01318162 Z" id="Path_20"></path>
                <polygon id="Path_21" points="61.88 0.454416667 75.6466667 0.454416667 80.1466667 12.2842308 80.2166667 12.2842308 84.5916667 0.454416667 98.425 0.454416667 98.425 18.11175 90.005 18.11175 90.005 4.8521047 89.935 4.8521047 84.03 18.1134145 75.225 18.1134145 69.67 4.8521047 69.565 4.8521047 69.565 18.1134145 61.88 18.1134145"></polygon>
                <path d="M101.573333,0.454416667 L116.981667,0.454416667 C122.188333,0.454416667 125.815,1.98911325 125.815,6.59653205 C125.815,10.8893547 122.315,12.4223868 117.778333,12.4223868 L110.65,12.4223868 L110.65,18.1100855 L101.573333,18.1100855 L101.573333,0.454416667 Z M110.658333,8.72546581 L112.51,8.72546581 C115.725,8.72546581 116.911667,8.13289316 116.911667,6.39512393 C116.911667,4.92867308 116.003333,4.16132479 113.411667,4.16132479 L110.651667,4.16132479 L110.658333,8.72546581 Z" id="Path_22"></path>
                <path d="M128.686667,0.454416667 L137.491667,0.454416667 L137.491667,10.1203419 C137.491667,13.5059957 138.925,14.552985 141.685,14.552985 C144.445,14.552985 145.878333,13.5059957 145.878333,10.1203419 L145.878333,0.454416667 L154.473333,0.454416667 L154.473333,10.7844893 C154.716796,12.7436871 153.93878,14.6909456 152.411667,15.9445321 C150.245,17.7938248 146.471667,18.5961282 141.578333,18.5961282 C136.721667,18.5961282 132.948333,17.8287799 130.745,15.9445321 C129.211547,14.6955834 128.432075,12.7446822 128.683333,10.7844893 L128.686667,0.454416667 Z" id="Path_23"></path>
            </g>
        </g>
    </g>
</svg>